<svg width="173" height="35" viewBox="0 0 173 35" fill="none" xmlns="http://www.w3.org/2000/svg">
<path d="M28.7332 6.64349L0 13.4531V34.048H28.7332V6.64349Z" fill="url(#paint0_linear_188_10286)"/>
<path d="M55.8053 13.4531L28.7329 6.64349V34.048H55.8053V13.4531Z" fill="url(#paint1_linear_188_10286)"/>
<path d="M52.9822 17.7713L31.0586 13.2869L31.889 15.28L53.8127 19.5983L52.9822 17.7713Z" fill="white" stroke="#B27F26" stroke-width="0.2" stroke-linejoin="round"/>
<path d="M53.1482 21.4252L31.2246 16.9409L32.055 18.9339L53.9787 23.2522L53.1482 21.4252Z" fill="white" stroke="#B27F26" stroke-width="0.2" stroke-linejoin="round"/>
<path d="M33.0518 0L29.564 1.99308V6.85873L33.0518 7.73849V0Z" fill="url(#paint2_linear_188_10286)"/>
<path d="M36.5396 1.49479L33.0518 0V7.7385L36.5396 8.63658V1.49479Z" fill="url(#paint3_linear_188_10286)"/>
<path d="M40.692 1.99298L37.2041 3.98606V8.80259L40.692 9.67942V1.99298Z" fill="url(#paint4_linear_188_10286)"/>
<path d="M44.1797 3.48777L40.6919 1.99298V9.65427L44.1797 10.5262V3.48777Z" fill="url(#paint5_linear_188_10286)"/>
<path d="M15.9446 17.2733L9.6333 18.2698V24.7473L15.9446 24.249V17.2733Z" fill="white" stroke="#B27F26" stroke-width="0.2"/>
<path d="M17.2726 17.9377L15.9438 17.2733V24.249L17.2726 23.7508V17.9377Z" fill="white" stroke="#B27F26" stroke-width="0.2"/>
<path d="M12.9554 23.9168L6.64404 24.4151V30.3292L12.9554 30.2282V23.9168Z" fill="white" stroke="#B27F26" stroke-width="0.2"/>
<path d="M19.2659 23.2524L12.9546 23.9167V30.2281L19.2659 30.062V23.2524Z" fill="white" stroke="#B27F26" stroke-width="0.2"/>
<path d="M20.5958 23.9167L19.2671 23.2524V30.062L20.5958 29.3976V23.9167Z" fill="white" stroke="#B27F26" stroke-width="0.2"/>
<path d="M70.5078 21.4922C71.9766 21.4922 73.2031 20.3672 74.1875 18.1172C74.6406 17.0859 74.8672 16.25 74.8672 15.6094C74.8672 14.9688 74.7578 14.5273 74.5391 14.2852C74.3281 14.043 73.9062 13.9219 73.2734 13.9219C72.6484 13.9219 71.9688 14.2148 71.2344 14.8008C70.5078 15.3789 69.9219 16.1094 69.4766 16.9922C69.0312 17.875 68.8086 18.6719 68.8086 19.3828C68.8086 20.0859 68.9648 20.6133 69.2773 20.9648C69.5898 21.3164 70 21.4922 70.5078 21.4922ZM76.6016 11.5664L81.9688 11.8125C82.1719 11.8125 82.3242 11.875 82.4258 12C82.5273 12.1172 82.5781 12.25 82.5781 12.3984C82.5781 12.9688 82.3398 13.8789 81.8633 15.1289C81.3945 16.3711 80.9219 17.6055 80.4453 18.832C79.9766 20.0508 79.7422 20.8594 79.7422 21.2578C79.7422 21.6484 79.8008 21.8984 79.918 22.0078C80.043 22.1172 80.2773 22.1719 80.6211 22.1719C80.9648 22.1719 81.5898 22.0078 82.4961 21.6797C83.4102 21.3438 84.0273 21.0898 84.3477 20.918C84.6758 20.7461 84.9258 20.6602 85.0977 20.6602C85.4023 20.6602 85.5547 20.7969 85.5547 21.0703C85.5547 21.6484 84.3828 22.4062 82.0391 23.3438C81.25 23.6641 80.2969 23.9297 79.1797 24.1406C78.0703 24.3594 76.9414 24.4688 75.793 24.4688C73.8789 24.4688 72.7266 23.8594 72.3359 22.6406C71.1172 23.8594 69.4766 24.4688 67.4141 24.4688C66 24.4688 64.8047 24.1289 63.8281 23.4492C62.7656 22.707 62.2344 21.5391 62.2344 19.9453C62.2344 18.2656 62.7305 16.7188 63.7227 15.3047C64.8086 13.7344 66.2617 12.6523 68.082 12.0586C69.0898 11.7305 70.1719 11.5664 71.3281 11.5664C73.1016 11.5664 74.4805 12.0039 75.4648 12.8789C75.4727 12.832 75.4766 12.7578 75.4766 12.6562L75.4648 12.1523C75.4648 11.7617 75.8438 11.5664 76.6016 11.5664ZM87.4297 11.9414L93.6289 11.8125C93.9336 11.8125 94.0859 11.9648 94.0859 12.2695C94.0859 12.4492 93.9922 12.6562 93.8047 12.8906C93.1328 13.7344 92.5664 14.6914 92.1055 15.7617C91.6523 16.832 91.4258 17.9219 91.4258 19.0312C91.4258 20.1953 91.6094 20.9258 91.9766 21.2227C92.1328 21.3477 92.332 21.4102 92.5742 21.4102C93.082 21.4102 93.5586 21.2109 94.0039 20.8125C94.457 20.4141 94.8398 19.9102 95.1523 19.3008C95.4727 18.6914 95.7617 17.9883 96.0195 17.1914C96.4492 15.8164 96.7617 14.3281 96.957 12.7266C96.9727 12.5391 97.0391 12.3633 97.1562 12.1992C97.2812 12.0273 97.4766 11.9414 97.7422 11.9414L103.941 11.8125C104.246 11.8125 104.398 11.9414 104.398 12.1992C104.398 12.4023 104.305 12.6328 104.117 12.8906C102.531 15.0938 101.738 17.2227 101.738 19.2773C101.738 20.6211 102.133 21.293 102.922 21.293C103.523 21.293 104.082 21.0391 104.598 20.5312C105.113 20.0234 105.539 19.3594 105.875 18.5391C106.594 16.7969 106.953 14.8594 106.953 12.7266C106.953 12.2734 107.215 12.0117 107.738 11.9414C107.91 11.918 108.625 11.8906 109.883 11.8594C111.148 11.8281 111.961 11.8125 112.32 11.8125C112.68 11.8125 112.859 11.9766 112.859 12.3047C112.859 13.4766 112.535 14.6562 111.887 15.8438C112.246 15.9141 112.609 15.9492 112.977 15.9492C114.203 15.9492 115.32 15.668 116.328 15.1055C116.547 14.9805 116.73 14.918 116.879 14.918C117.191 14.918 117.348 15.0625 117.348 15.3516C117.348 15.6328 117.18 15.9023 116.844 16.1602C115.719 17.0195 114.203 17.4492 112.297 17.4492C111.789 17.4492 111.336 17.4102 110.938 17.332L110.41 18.0469C109.496 19.2578 108.383 20.3828 107.07 21.4219C105.766 22.4531 104.434 23.2695 103.074 23.8711C101.723 24.4648 100.52 24.7617 99.4648 24.7617C98.7852 24.7617 98.1172 24.4648 97.4609 23.8711C96.8125 23.2773 96.2891 22.5234 95.8906 21.6094C94.6953 22.5938 93.4844 23.3867 92.2578 23.9883C91.0312 24.582 89.957 24.8789 89.0352 24.8789C87.7461 24.8789 86.6875 24.3203 85.8594 23.2031C85.0312 22.0859 84.6172 20.625 84.6172 18.8203C84.6172 18.0547 84.7773 17.0195 85.0977 15.7148C85.4258 14.4102 85.8086 13.3984 86.2461 12.6797C86.4258 12.3906 86.5938 12.1953 86.75 12.0938C86.9062 11.9922 87.1328 11.9414 87.4297 11.9414ZM121.977 21.4922C123.445 21.4922 124.672 20.3672 125.656 18.1172C126.109 17.0859 126.336 16.25 126.336 15.6094C126.336 14.9688 126.227 14.5273 126.008 14.2852C125.797 14.043 125.375 13.9219 124.742 13.9219C124.117 13.9219 123.438 14.2148 122.703 14.8008C121.977 15.3789 121.391 16.1094 120.945 16.9922C120.5 17.875 120.277 18.6719 120.277 19.3828C120.277 20.0859 120.434 20.6133 120.746 20.9648C121.059 21.3164 121.469 21.4922 121.977 21.4922ZM128.07 11.5664L133.438 11.8125C133.641 11.8125 133.793 11.875 133.895 12C133.996 12.1172 134.047 12.25 134.047 12.3984C134.047 12.9688 133.809 13.8789 133.332 15.1289C132.863 16.3711 132.391 17.6055 131.914 18.832C131.445 20.0508 131.211 20.8594 131.211 21.2578C131.211 21.6484 131.27 21.8984 131.387 22.0078C131.512 22.1172 131.746 22.1719 132.09 22.1719C132.434 22.1719 133.059 22.0078 133.965 21.6797C134.879 21.3438 135.496 21.0898 135.816 20.918C136.145 20.7461 136.395 20.6602 136.566 20.6602C136.871 20.6602 137.023 20.7969 137.023 21.0703C137.023 21.6484 135.852 22.4062 133.508 23.3438C132.719 23.6641 131.766 23.9297 130.648 24.1406C129.539 24.3594 128.41 24.4688 127.262 24.4688C125.348 24.4688 124.195 23.8594 123.805 22.6406C122.586 23.8594 120.945 24.4688 118.883 24.4688C117.469 24.4688 116.273 24.1289 115.297 23.4492C114.234 22.707 113.703 21.5391 113.703 19.9453C113.703 18.2656 114.199 16.7188 115.191 15.3047C116.277 13.7344 117.73 12.6523 119.551 12.0586C120.559 11.7305 121.641 11.5664 122.797 11.5664C124.57 11.5664 125.949 12.0039 126.934 12.8789C126.941 12.832 126.945 12.7578 126.945 12.6562L126.934 12.1523C126.934 11.7617 127.312 11.5664 128.07 11.5664ZM143.27 24.457C143.074 24.4648 142.785 24.4688 142.402 24.4688C140.605 24.4688 138.91 24.3008 137.316 23.9648C135.73 23.6289 134.793 23.2383 134.504 22.793C134.41 22.6523 134.363 22.4766 134.363 22.2656C134.363 22.0547 134.613 21.7188 135.113 21.2578C135.613 20.7891 135.957 20.5547 136.145 20.5547C136.332 20.5547 136.523 20.625 136.719 20.7656C136.922 20.8984 137.145 21.0625 137.387 21.2578C137.629 21.4531 137.898 21.6484 138.195 21.8438C138.906 22.3125 139.762 22.5469 140.762 22.5469C141.16 22.5469 141.48 22.4453 141.723 22.2422C141.973 22.0391 142.098 21.7852 142.098 21.4805C142.098 21.168 141.992 20.8984 141.781 20.6719C141.578 20.4453 141.309 20.25 140.973 20.0859C140.645 19.9141 140.281 19.7461 139.883 19.582C139.484 19.4102 139.082 19.2266 138.676 19.0312C138.277 18.8281 137.91 18.6094 137.574 18.375C136.832 17.8516 136.461 17.2031 136.461 16.4297C136.461 15.6484 136.695 14.9727 137.164 14.4023C137.641 13.832 138.238 13.375 138.957 13.0312C139.676 12.6875 140.488 12.3984 141.395 12.1641C142.988 11.7656 144.492 11.5664 145.906 11.5664C147.328 11.5664 148.648 11.6406 149.867 11.7891C151.094 11.9297 151.938 12.1406 152.398 12.4219C152.523 12.4922 152.586 12.6797 152.586 12.9844C152.586 13.2812 152.48 13.7109 152.27 14.2734C152.059 14.8281 151.789 15.3438 151.461 15.8203C151.141 16.2891 150.852 16.5234 150.594 16.5234C150.492 16.5234 150.406 16.4805 150.336 16.3945C149.594 15.5039 148.871 14.8203 148.168 14.3438C147.473 13.8594 146.715 13.6172 145.895 13.6172C145.27 13.6172 144.82 13.7461 144.547 14.0039C144.281 14.2539 144.148 14.5156 144.148 14.7891C144.148 15.0625 144.297 15.3242 144.594 15.5742C144.898 15.8242 145.273 16.0508 145.719 16.2539C146.172 16.457 146.66 16.6953 147.184 16.9688C147.715 17.2344 148.203 17.5078 148.648 17.7891C149.102 18.0625 149.477 18.4102 149.773 18.832C150.078 19.2461 150.23 19.7695 150.23 20.4023C150.23 21.0352 150 21.6523 149.539 22.2539C151.477 21.8633 152.992 21.3828 154.086 20.8125C154.273 20.7109 154.434 20.6602 154.566 20.6602C154.863 20.6602 155.012 20.8086 155.012 21.1055C155.012 21.3555 154.859 21.5859 154.555 21.7969C154.25 22 153.746 22.25 153.043 22.5469C152.34 22.8359 151.504 23.1289 150.535 23.4258C148.277 24.1133 145.855 24.457 143.27 24.457ZM161.246 24.457C161.051 24.4648 160.762 24.4688 160.379 24.4688C158.582 24.4688 156.887 24.3008 155.293 23.9648C153.707 23.6289 152.77 23.2383 152.48 22.793C152.387 22.6523 152.34 22.4766 152.34 22.2656C152.34 22.0547 152.59 21.7188 153.09 21.2578C153.59 20.7891 153.934 20.5547 154.121 20.5547C154.309 20.5547 154.5 20.625 154.695 20.7656C154.898 20.8984 155.121 21.0625 155.363 21.2578C155.605 21.4531 155.875 21.6484 156.172 21.8438C156.883 22.3125 157.738 22.5469 158.738 22.5469C159.137 22.5469 159.457 22.4453 159.699 22.2422C159.949 22.0391 160.074 21.7852 160.074 21.4805C160.074 21.168 159.969 20.8984 159.758 20.6719C159.555 20.4453 159.285 20.25 158.949 20.0859C158.621 19.9141 158.258 19.7461 157.859 19.582C157.461 19.4102 157.059 19.2266 156.652 19.0312C156.254 18.8281 155.887 18.6094 155.551 18.375C154.809 17.8516 154.438 17.2031 154.438 16.4297C154.438 15.6484 154.672 14.9727 155.141 14.4023C155.617 13.832 156.215 13.375 156.934 13.0312C157.652 12.6875 158.465 12.3984 159.371 12.1641C160.965 11.7656 162.469 11.5664 163.883 11.5664C165.305 11.5664 166.625 11.6406 167.844 11.7891C169.07 11.9297 169.914 12.1406 170.375 12.4219C170.5 12.4922 170.562 12.6797 170.562 12.9844C170.562 13.2812 170.457 13.7109 170.246 14.2734C170.035 14.8281 169.766 15.3438 169.438 15.8203C169.117 16.2891 168.828 16.5234 168.57 16.5234C168.469 16.5234 168.383 16.4805 168.312 16.3945C167.57 15.5039 166.848 14.8203 166.145 14.3438C165.449 13.8594 164.691 13.6172 163.871 13.6172C163.246 13.6172 162.797 13.7461 162.523 14.0039C162.258 14.2539 162.125 14.5156 162.125 14.7891C162.125 15.0625 162.273 15.3242 162.57 15.5742C162.875 15.8242 163.25 16.0508 163.695 16.2539C164.148 16.457 164.637 16.6953 165.16 16.9688C165.691 17.2344 166.18 17.5078 166.625 17.7891C167.078 18.0625 167.453 18.4102 167.75 18.832C168.055 19.2461 168.207 19.7695 168.207 20.4023C168.207 21.0352 167.977 21.6523 167.516 22.2539C169.453 21.8633 170.969 21.3828 172.062 20.8125C172.25 20.7109 172.41 20.6602 172.543 20.6602C172.84 20.6602 172.988 20.8086 172.988 21.1055C172.988 21.3555 172.836 21.5859 172.531 21.7969C172.227 22 171.723 22.25 171.02 22.5469C170.316 22.8359 169.48 23.1289 168.512 23.4258C166.254 24.1133 163.832 24.457 161.246 24.457Z" fill="url(#paint6_linear_188_10286)"/>
<path d="M63.2157 33L64.1797 30.08H65.2397L66.2397 33H65.5597L64.7517 30.532L64.9597 30.616H64.4437L64.6597 30.532L63.8717 33H63.2157ZM63.9477 32.276L64.1477 31.732H65.2917L65.4957 32.276H63.9477ZM67.9966 33.016V32.404H68.5406C68.6766 32.404 68.7992 32.384 68.9086 32.344C69.0179 32.3013 69.1112 32.2427 69.1886 32.168C69.2659 32.0907 69.3246 31.9987 69.3646 31.892C69.4046 31.7827 69.4246 31.6627 69.4246 31.532C69.4246 31.396 69.4046 31.2747 69.3646 31.168C69.3246 31.0613 69.2659 30.9707 69.1886 30.896C69.1112 30.8213 69.0179 30.7653 68.9086 30.728C68.7992 30.688 68.6766 30.668 68.5406 30.668H67.9966V30.056H68.5046C68.7686 30.056 68.9992 30.0947 69.1966 30.172C69.3939 30.2493 69.5592 30.3547 69.6926 30.488C69.8259 30.6213 69.9246 30.7747 69.9886 30.948C70.0552 31.1187 70.0886 31.2987 70.0886 31.488V31.576C70.0886 31.752 70.0552 31.9267 69.9886 32.1C69.9246 32.2707 69.8259 32.4253 69.6926 32.564C69.5592 32.7 69.3939 32.8093 69.1966 32.892C68.9992 32.9747 68.7686 33.016 68.5046 33.016H67.9966ZM67.4206 33.016V30.056H68.0766V33.016H67.4206ZM71.9388 33L71.0508 30.08H71.7268L72.4308 32.544L72.2788 32.468H72.6868L72.5268 32.544L73.1788 30.08H73.8348L73.0068 33H71.9388ZM74.5805 33L75.5445 30.08H76.6045L77.6045 33H76.9245L76.1165 30.532L76.3245 30.616H75.8085L76.0245 30.532L75.2365 33H74.5805ZM75.3125 32.276L75.5125 31.732H76.6565L76.8605 32.276H75.3125ZM78.7854 33V30.08H79.8614L80.9614 32.468H81.0974L81.0174 32.54V30.08H81.6334V33H80.5494L79.4494 30.612H79.3134L79.3934 30.54V33H78.7854ZM84.4293 33.076C84.1653 33.076 83.9387 33.0307 83.7493 32.94C83.56 32.8467 83.4053 32.7253 83.2853 32.576C83.1653 32.424 83.076 32.2613 83.0173 32.088C82.9613 31.912 82.9333 31.7413 82.9333 31.576V31.488C82.9333 31.3067 82.9627 31.128 83.0213 30.952C83.08 30.7733 83.1693 30.612 83.2893 30.468C83.412 30.324 83.5653 30.2093 83.7493 30.124C83.936 30.036 84.156 29.992 84.4093 29.992C84.6733 29.992 84.9067 30.0413 85.1093 30.14C85.312 30.2387 85.4733 30.376 85.5933 30.552C85.716 30.7253 85.788 30.9293 85.8093 31.164H85.1493C85.1307 31.0467 85.088 30.9467 85.0213 30.864C84.9547 30.7813 84.868 30.7173 84.7613 30.672C84.6573 30.6267 84.54 30.604 84.4093 30.604C84.2787 30.604 84.1627 30.6267 84.0613 30.672C83.96 30.7173 83.8747 30.7813 83.8053 30.864C83.7387 30.9467 83.6867 31.0453 83.6493 31.16C83.6147 31.272 83.5973 31.3973 83.5973 31.536C83.5973 31.672 83.6147 31.7973 83.6493 31.912C83.6867 32.024 83.74 32.1227 83.8093 32.208C83.8813 32.2907 83.9693 32.3547 84.0733 32.4C84.1773 32.4427 84.296 32.464 84.4293 32.464C84.632 32.464 84.8027 32.4147 84.9413 32.316C85.0827 32.2173 85.168 32.0813 85.1973 31.908H85.8533C85.8293 32.1213 85.7573 32.3173 85.6373 32.496C85.52 32.672 85.3587 32.8133 85.1533 32.92C84.9507 33.024 84.7093 33.076 84.4293 33.076ZM87.0885 33V30.08H87.7285V33H87.0885ZM87.6485 33V32.456H88.9245V33H87.6485ZM87.6485 31.788V31.244H88.8325V31.788H87.6485ZM87.6485 30.624V30.08H88.8965V30.624H87.6485ZM92.3794 33L91.6594 30.08H92.3354L92.8994 32.56L92.7594 32.468H93.1234L92.9674 32.56L93.4034 30.188H93.9474L93.3754 33H92.3794ZM94.1194 33L93.5034 30.188H94.0754L94.5794 32.56L94.4274 32.468H94.7754L94.6434 32.56L95.1354 30.08H95.7754L95.1354 33H94.1194ZM96.568 33L97.532 30.08H98.592L99.592 33H98.912L98.104 30.532L98.312 30.616H97.796L98.012 30.532L97.224 33H96.568ZM97.3 32.276L97.5 31.732H98.644L98.848 32.276H97.3ZM100.773 33V30.056H101.429V33H100.773ZM102.545 33L101.689 31.744H102.409L103.305 33H102.545ZM101.253 32.064V31.548H101.973C102.069 31.548 102.152 31.5293 102.221 31.492C102.293 31.452 102.348 31.3973 102.385 31.328C102.425 31.256 102.445 31.1733 102.445 31.08C102.445 30.9867 102.425 30.9053 102.385 30.836C102.348 30.764 102.293 30.7093 102.221 30.672C102.152 30.632 102.069 30.612 101.973 30.612H101.253V30.056H101.921C102.164 30.056 102.374 30.0933 102.553 30.168C102.732 30.24 102.869 30.348 102.965 30.492C103.061 30.636 103.109 30.8173 103.109 31.036V31.1C103.109 31.316 103.06 31.496 102.961 31.64C102.865 31.7813 102.728 31.888 102.549 31.96C102.373 32.0293 102.164 32.064 101.921 32.064H101.253ZM104.495 33V30.08H105.135V33H104.495ZM105.055 33V32.456H106.331V33H105.055ZM105.055 31.788V31.244H106.239V31.788H105.055ZM105.055 30.624V30.08H106.303V30.624H105.055ZM109.558 33V30.08H110.214V33H109.558ZM107.67 33V30.08H108.326V33H107.67ZM108.21 31.82V31.244H109.674V31.82H108.21ZM113.069 33.076C112.805 33.076 112.574 33.0307 112.377 32.94C112.182 32.8467 112.021 32.7253 111.893 32.576C111.765 32.424 111.669 32.26 111.605 32.084C111.544 31.908 111.513 31.7387 111.513 31.576V31.488C111.513 31.3067 111.545 31.128 111.609 30.952C111.676 30.7733 111.774 30.612 111.905 30.468C112.036 30.324 112.198 30.2093 112.393 30.124C112.588 30.036 112.813 29.992 113.069 29.992C113.325 29.992 113.55 30.036 113.745 30.124C113.94 30.2093 114.102 30.324 114.233 30.468C114.364 30.612 114.462 30.7733 114.529 30.952C114.596 31.128 114.629 31.3067 114.629 31.488V31.576C114.629 31.7387 114.597 31.908 114.533 32.084C114.469 32.26 114.373 32.424 114.245 32.576C114.117 32.7253 113.954 32.8467 113.757 32.94C113.562 33.0307 113.333 33.076 113.069 33.076ZM113.069 32.464C113.208 32.464 113.332 32.44 113.441 32.392C113.553 32.344 113.648 32.2773 113.725 32.192C113.805 32.1067 113.865 32.008 113.905 31.896C113.945 31.784 113.965 31.664 113.965 31.536C113.965 31.4 113.944 31.276 113.901 31.164C113.861 31.0493 113.801 30.9507 113.721 30.868C113.644 30.7827 113.55 30.7173 113.441 30.672C113.332 30.6267 113.208 30.604 113.069 30.604C112.93 30.604 112.806 30.6267 112.697 30.672C112.588 30.7173 112.493 30.7827 112.413 30.868C112.336 30.9507 112.277 31.0493 112.237 31.164C112.197 31.276 112.177 31.4 112.177 31.536C112.177 31.664 112.197 31.784 112.237 31.896C112.277 32.008 112.336 32.1067 112.413 32.192C112.493 32.2773 112.588 32.344 112.697 32.392C112.806 32.44 112.93 32.464 113.069 32.464ZM117.15 33.076C116.875 33.076 116.642 33.0253 116.45 32.924C116.261 32.82 116.117 32.6733 116.018 32.484C115.919 32.2947 115.87 32.0707 115.87 31.812V30.08H116.526V31.836C116.526 31.964 116.55 32.076 116.598 32.172C116.649 32.2653 116.719 32.3373 116.81 32.388C116.903 32.4387 117.017 32.464 117.15 32.464C117.286 32.464 117.399 32.4387 117.49 32.388C117.583 32.3373 117.654 32.2653 117.702 32.172C117.75 32.0787 117.774 31.9667 117.774 31.836V30.08H118.43V31.812C118.43 32.0707 118.381 32.2947 118.282 32.484C118.183 32.6733 118.039 32.82 117.85 32.924C117.661 33.0253 117.427 33.076 117.15 33.076ZM120.848 33.076C120.584 33.076 120.361 33.0347 120.18 32.952C119.998 32.8667 119.861 32.752 119.768 32.608C119.674 32.4613 119.628 32.2933 119.628 32.104H120.264C120.264 32.1787 120.284 32.248 120.324 32.312C120.366 32.376 120.43 32.428 120.516 32.468C120.601 32.5053 120.712 32.524 120.848 32.524C120.97 32.524 121.073 32.508 121.156 32.476C121.238 32.444 121.301 32.4 121.344 32.344C121.386 32.2853 121.408 32.2187 121.408 32.144C121.408 32.0507 121.368 31.9773 121.288 31.924C121.208 31.868 121.078 31.832 120.9 31.816L120.68 31.796C120.389 31.772 120.157 31.6813 119.984 31.524C119.81 31.3667 119.724 31.1587 119.724 30.9C119.724 30.7133 119.768 30.552 119.856 30.416C119.946 30.28 120.072 30.176 120.232 30.104C120.392 30.0293 120.581 29.992 120.8 29.992C121.029 29.992 121.225 30.032 121.388 30.112C121.553 30.1893 121.68 30.3 121.768 30.444C121.856 30.5853 121.9 30.752 121.9 30.944H121.26C121.26 30.872 121.242 30.8067 121.208 30.748C121.173 30.6867 121.121 30.6373 121.052 30.6C120.985 30.5627 120.901 30.544 120.8 30.544C120.704 30.544 120.622 30.56 120.556 30.592C120.492 30.624 120.444 30.668 120.412 30.724C120.38 30.7773 120.364 30.836 120.364 30.9C120.364 30.9827 120.393 31.0547 120.452 31.116C120.51 31.1773 120.606 31.2133 120.74 31.224L120.964 31.244C121.177 31.2627 121.365 31.3093 121.528 31.384C121.69 31.456 121.817 31.556 121.908 31.684C122.001 31.8093 122.048 31.9627 122.048 32.144C122.048 32.3307 121.998 32.4947 121.9 32.636C121.804 32.7747 121.666 32.8827 121.488 32.96C121.309 33.0373 121.096 33.076 120.848 33.076ZM123.299 33V30.08H123.939V33H123.299ZM123.859 33V32.456H125.135V33H123.859ZM123.859 31.788V31.244H125.043V31.788H123.859ZM123.859 30.624V30.08H125.107V30.624H123.859ZM129.13 33.076C128.866 33.076 128.644 33.0347 128.462 32.952C128.281 32.8667 128.144 32.752 128.05 32.608C127.957 32.4613 127.91 32.2933 127.91 32.104H128.546C128.546 32.1787 128.566 32.248 128.606 32.312C128.649 32.376 128.713 32.428 128.798 32.468C128.884 32.5053 128.994 32.524 129.13 32.524C129.253 32.524 129.356 32.508 129.438 32.476C129.521 32.444 129.584 32.4 129.626 32.344C129.669 32.2853 129.69 32.2187 129.69 32.144C129.69 32.0507 129.65 31.9773 129.57 31.924C129.49 31.868 129.361 31.832 129.182 31.816L128.962 31.796C128.672 31.772 128.44 31.6813 128.266 31.524C128.093 31.3667 128.006 31.1587 128.006 30.9C128.006 30.7133 128.05 30.552 128.138 30.416C128.229 30.28 128.354 30.176 128.514 30.104C128.674 30.0293 128.864 29.992 129.082 29.992C129.312 29.992 129.508 30.032 129.67 30.112C129.836 30.1893 129.962 30.3 130.05 30.444C130.138 30.5853 130.182 30.752 130.182 30.944H129.542C129.542 30.872 129.525 30.8067 129.49 30.748C129.456 30.6867 129.404 30.6373 129.334 30.6C129.268 30.5627 129.184 30.544 129.082 30.544C128.986 30.544 128.905 30.56 128.838 30.592C128.774 30.624 128.726 30.668 128.694 30.724C128.662 30.7773 128.646 30.836 128.646 30.9C128.646 30.9827 128.676 31.0547 128.734 31.116C128.793 31.1773 128.889 31.2133 129.022 31.224L129.246 31.244C129.46 31.2627 129.648 31.3093 129.81 31.384C129.973 31.456 130.1 31.556 130.19 31.684C130.284 31.8093 130.33 31.9627 130.33 32.144C130.33 32.3307 130.281 32.4947 130.182 32.636C130.086 32.7747 129.949 32.8827 129.77 32.96C129.592 33.0373 129.378 33.076 129.13 33.076ZM131.582 33V30.08H132.486L133.154 31.72H133.23L133.89 30.08H134.81V33H134.162V30.508L134.254 30.516L133.482 32.408H132.858L132.082 30.516L132.182 30.508V33H131.582ZM135.989 33L136.953 30.08H138.013L139.013 33H138.333L137.525 30.532L137.733 30.616H137.217L137.433 30.532L136.645 33H135.989ZM136.721 32.276L136.921 31.732H138.065L138.269 32.276H136.721ZM140.194 33V30.056H140.85V33H140.194ZM141.966 33L141.11 31.744H141.83L142.726 33H141.966ZM140.674 32.064V31.548H141.394C141.49 31.548 141.573 31.5293 141.642 31.492C141.714 31.452 141.769 31.3973 141.806 31.328C141.846 31.256 141.866 31.1733 141.866 31.08C141.866 30.9867 141.846 30.9053 141.806 30.836C141.769 30.764 141.714 30.7093 141.642 30.672C141.573 30.632 141.49 30.612 141.394 30.612H140.674V30.056H141.342C141.585 30.056 141.795 30.0933 141.974 30.168C142.153 30.24 142.29 30.348 142.386 30.492C142.482 30.636 142.53 30.8173 142.53 31.036V31.1C142.53 31.316 142.481 31.496 142.382 31.64C142.286 31.7813 142.149 31.888 141.97 31.96C141.794 32.0293 141.585 32.064 141.342 32.064H140.674ZM144.414 33V30.572H145.07V33H144.414ZM143.594 30.652V30.08H145.894V30.652H143.594ZM149.762 33.076C149.498 33.076 149.276 33.0347 149.094 32.952C148.913 32.8667 148.776 32.752 148.682 32.608C148.589 32.4613 148.542 32.2933 148.542 32.104H149.178C149.178 32.1787 149.198 32.248 149.238 32.312C149.281 32.376 149.345 32.428 149.43 32.468C149.516 32.5053 149.626 32.524 149.762 32.524C149.885 32.524 149.988 32.508 150.07 32.476C150.153 32.444 150.216 32.4 150.258 32.344C150.301 32.2853 150.322 32.2187 150.322 32.144C150.322 32.0507 150.282 31.9773 150.202 31.924C150.122 31.868 149.993 31.832 149.814 31.816L149.594 31.796C149.304 31.772 149.072 31.6813 148.898 31.524C148.725 31.3667 148.638 31.1587 148.638 30.9C148.638 30.7133 148.682 30.552 148.77 30.416C148.861 30.28 148.986 30.176 149.146 30.104C149.306 30.0293 149.496 29.992 149.714 29.992C149.944 29.992 150.14 30.032 150.302 30.112C150.468 30.1893 150.594 30.3 150.682 30.444C150.77 30.5853 150.814 30.752 150.814 30.944H150.174C150.174 30.872 150.157 30.8067 150.122 30.748C150.088 30.6867 150.036 30.6373 149.966 30.6C149.9 30.5627 149.816 30.544 149.714 30.544C149.618 30.544 149.537 30.56 149.47 30.592C149.406 30.624 149.358 30.668 149.326 30.724C149.294 30.7773 149.278 30.836 149.278 30.9C149.278 30.9827 149.308 31.0547 149.366 31.116C149.425 31.1773 149.521 31.2133 149.654 31.224L149.878 31.244C150.092 31.2627 150.28 31.3093 150.442 31.384C150.605 31.456 150.732 31.556 150.822 31.684C150.916 31.8093 150.962 31.9627 150.962 32.144C150.962 32.3307 150.913 32.4947 150.814 32.636C150.718 32.7747 150.581 32.8827 150.402 32.96C150.224 33.0373 150.01 33.076 149.762 33.076ZM152.653 31.892L151.801 30.08H152.473L153.085 31.436L152.969 31.4H153.305L153.181 31.436L153.733 30.08H154.369L153.585 31.892H152.653ZM152.797 33V31.8H153.441V33H152.797ZM156.464 33.076C156.2 33.076 155.977 33.0347 155.796 32.952C155.615 32.8667 155.477 32.752 155.384 32.608C155.291 32.4613 155.244 32.2933 155.244 32.104H155.88C155.88 32.1787 155.9 32.248 155.94 32.312C155.983 32.376 156.047 32.428 156.132 32.468C156.217 32.5053 156.328 32.524 156.464 32.524C156.587 32.524 156.689 32.508 156.772 32.476C156.855 32.444 156.917 32.4 156.96 32.344C157.003 32.2853 157.024 32.2187 157.024 32.144C157.024 32.0507 156.984 31.9773 156.904 31.924C156.824 31.868 156.695 31.832 156.516 31.816L156.296 31.796C156.005 31.772 155.773 31.6813 155.6 31.524C155.427 31.3667 155.34 31.1587 155.34 30.9C155.34 30.7133 155.384 30.552 155.472 30.416C155.563 30.28 155.688 30.176 155.848 30.104C156.008 30.0293 156.197 29.992 156.416 29.992C156.645 29.992 156.841 30.032 157.004 30.112C157.169 30.1893 157.296 30.3 157.384 30.444C157.472 30.5853 157.516 30.752 157.516 30.944H156.876C156.876 30.872 156.859 30.8067 156.824 30.748C156.789 30.6867 156.737 30.6373 156.668 30.6C156.601 30.5627 156.517 30.544 156.416 30.544C156.32 30.544 156.239 30.56 156.172 30.592C156.108 30.624 156.06 30.668 156.028 30.724C155.996 30.7773 155.98 30.836 155.98 30.9C155.98 30.9827 156.009 31.0547 156.068 31.116C156.127 31.1773 156.223 31.2133 156.356 31.224L156.58 31.244C156.793 31.2627 156.981 31.3093 157.144 31.384C157.307 31.456 157.433 31.556 157.524 31.684C157.617 31.8093 157.664 31.9627 157.664 32.144C157.664 32.3307 157.615 32.4947 157.516 32.636C157.42 32.7747 157.283 32.8827 157.104 32.96C156.925 33.0373 156.712 33.076 156.464 33.076ZM159.414 33V30.572H160.07V33H159.414ZM158.594 30.652V30.08H160.894V30.652H158.594ZM162.107 33V30.08H162.747V33H162.107ZM162.667 33V32.456H163.943V33H162.667ZM162.667 31.788V31.244H163.851V31.788H162.667ZM162.667 30.624V30.08H163.915V30.624H162.667ZM165.282 33V30.08H166.186L166.854 31.72H166.93L167.59 30.08H168.51V33H167.862V30.508L167.954 30.516L167.182 32.408H166.558L165.782 30.516L165.882 30.508V33H165.282Z" fill="#B27F26"/>
<defs>
<linearGradient id="paint0_linear_188_10286" x1="28.5671" y1="23.4184" x2="-1.8749e-06" y2="33.7158" gradientUnits="userSpaceOnUse">
<stop stop-color="#FFCF7B"/>
<stop offset="1" stop-color="#C58D2A"/>
</linearGradient>
<linearGradient id="paint1_linear_188_10286" x1="57.4662" y1="23.0862" x2="28.899" y2="33.3837" gradientUnits="userSpaceOnUse">
<stop stop-color="#FFCF7B"/>
<stop offset="1" stop-color="#C58D2A"/>
</linearGradient>
<linearGradient id="paint2_linear_188_10286" x1="33.0518" y1="2.49132" x2="29.564" y2="7.14179" gradientUnits="userSpaceOnUse">
<stop stop-color="#FFEAC4"/>
<stop offset="1" stop-color="#C58D2A"/>
</linearGradient>
<linearGradient id="paint3_linear_188_10286" x1="36.5396" y1="4.1522" x2="33.2178" y2="5.97917" gradientUnits="userSpaceOnUse">
<stop stop-color="#FFEAC4"/>
<stop offset="1" stop-color="#C58D2A"/>
</linearGradient>
<linearGradient id="paint4_linear_188_10286" x1="40.692" y1="4.4843" x2="37.2041" y2="9.13477" gradientUnits="userSpaceOnUse">
<stop stop-color="#FFEAC4"/>
<stop offset="1" stop-color="#C58D2A"/>
</linearGradient>
<linearGradient id="paint5_linear_188_10286" x1="44.1797" y1="6.14518" x2="40.858" y2="7.97215" gradientUnits="userSpaceOnUse">
<stop stop-color="#FFEAC4"/>
<stop offset="1" stop-color="#C58D2A"/>
</linearGradient>
<linearGradient id="paint6_linear_188_10286" x1="171" y1="15.5" x2="61" y2="15.5" gradientUnits="userSpaceOnUse">
<stop stop-color="#C58D2A"/>
<stop offset="1" stop-color="#FFD07D"/>
</linearGradient>
</defs>
</svg>
