<svg width="16" height="16" viewBox="0 0 16 16" fill="none" xmlns="http://www.w3.org/2000/svg">
<g clip-path="url(#clip0_79_1061)">
<path d="M8.33333 8.0004L14.9817 4.19158M8.33333 8.0004V15.618M8.33333 8.0004L5.00875 6.0964M14.9817 4.19158C14.751 3.79553 14.4201 3.46719 14.0223 3.23958L11.8333 1.98534M14.9817 4.19158C15.2082 4.58028 15.3333 5.02746 15.3333 5.49275V10.508C15.3331 10.9659 15.2117 11.4155 14.9814 11.8113C14.7511 12.207 14.4202 12.5348 14.0223 12.7612L9.64439 15.2697C9.24526 15.4982 8.79326 15.6183 8.33333 15.618M8.33333 15.618C7.8734 15.6183 7.42141 15.4982 7.02227 15.2697L2.64439 12.7612C1.83322 12.2968 1.33333 11.4386 1.33333 10.508V5.49275C1.33321 5.03564 1.45427 4.58667 1.68416 4.19158M5.00875 6.0964L1.68416 4.19158M5.00875 6.0964L11.8333 1.98534M11.8333 1.98534L9.64439 0.731107C9.24535 0.502251 8.79335 0.381836 8.33333 0.381836C7.87332 0.381836 7.42132 0.502251 7.02227 0.731107L2.64439 3.23958C2.24626 3.46707 1.91507 3.79542 1.68416 4.19158" stroke="black" stroke-linejoin="round"/>
</g>
<defs>
<clipPath id="clip0_79_1061">
<rect width="16" height="16" fill="white"/>
</clipPath>
</defs>
</svg>
