<svg width="24" height="24" viewBox="0 0 24 24" fill="none" xmlns="http://www.w3.org/2000/svg">
<path d="M12.5491 12.3873V23C12.6156 22.9776 12.6783 22.9464 12.7353 22.9075L20.8147 18.3873C21.176 18.1938 21.4757 17.9146 21.6834 17.578C21.8992 17.2267 22.0066 16.8266 21.9937 16.422V7.09249L12.5491 12.3873ZM7.42351 8.42197L11.4942 10.7341L21.0009 5.41618L20.8643 5.33526L17.0666 3.45087L7.42351 8.42197ZM2 5.5L5.36333 7.2659L14.8451 2.31792L12.7849 1.31214C12.4079 1.10838 11.9798 1.00072 11.5439 1C11.1076 1.00942 10.6809 1.12072 10.3028 1.3237L2.27305 5.3237C2 5.5 2.08406 5.4576 2 5.5Z" fill="#B27F26"/>
<path d="M11.4456 12.2948V22.9075C11.3792 22.8851 11.3165 22.8539 11.2594 22.815L3.18006 18.2948C2.8188 18.1013 2.51904 17.8221 2.31131 17.4855C2.0955 17.1342 1.98813 16.7341 2.00104 16.3295V7L11.4456 12.2948Z" fill="#B27F26"/>
</svg>
