<svg width="16" height="16" viewBox="0 0 16 16" fill="none" xmlns="http://www.w3.org/2000/svg">
<g clip-path="url(#clip0_79_109)">
<path d="M14.6667 9.48166H1.33333M1.33333 5.03722H14.6667M7.25926 11.7039H8.74074M7.25926 7.25944H8.74074M7.25926 2.815H8.74074M12.0741 13.9261V15.4076M3.92593 13.9261V15.4076M14.6667 1.03722V13.4817C14.6667 13.54 14.6552 13.5978 14.6328 13.6517C14.6105 13.7057 14.5778 13.7547 14.5365 13.7959C14.4952 13.8372 14.4462 13.8699 14.3923 13.8923C14.3384 13.9146 14.2806 13.9261 14.2222 13.9261H1.77778C1.71941 13.9261 1.66162 13.9146 1.6077 13.8923C1.55377 13.8699 1.50478 13.8372 1.46351 13.7959C1.42224 13.7547 1.3895 13.7057 1.36716 13.6517C1.34483 13.5978 1.33333 13.54 1.33333 13.4817V1.03722C1.33333 0.919344 1.38016 0.806298 1.46351 0.722948C1.54686 0.639599 1.6599 0.592773 1.77778 0.592773H14.2222C14.3401 0.592773 14.4531 0.639599 14.5365 0.722948C14.6198 0.806298 14.6667 0.919344 14.6667 1.03722Z" stroke="black" stroke-linecap="round" stroke-linejoin="round"/>
</g>
<defs>
<clipPath id="clip0_79_109">
<rect width="16" height="16" fill="white"/>
</clipPath>
</defs>
</svg>
