<svg width="16" height="16" viewBox="0 0 16 16" fill="none" xmlns="http://www.w3.org/2000/svg">
<g clip-path="url(#clip0_79_325)">
<path d="M8 11.292H4.57778C4.44812 11.292 4.32377 11.3435 4.23208 11.4352C4.1404 11.5269 4.08889 11.6512 4.08889 11.7809V14.7142C4.08889 14.8439 4.1404 14.9682 4.23208 15.0599C4.32377 15.1516 4.44812 15.2031 4.57778 15.2031H7.51111C7.64077 15.2031 7.76512 15.1516 7.85681 15.0599C7.94849 14.9682 8 14.8439 8 14.7142V11.292Z" stroke="black" stroke-width="1.1" stroke-linecap="round" stroke-linejoin="round"/>
<path d="M11.4222 11.292H8V14.7142C8 14.8439 8.05151 14.9682 8.14319 15.0599C8.23488 15.1516 8.35923 15.2031 8.48889 15.2031H11.4222C11.5519 15.2031 11.6762 15.1516 11.7679 15.0599C11.8596 14.9682 11.9111 14.8439 11.9111 14.7142V11.7809C11.9111 11.6512 11.8596 11.5268 11.7679 11.4352C11.6762 11.3435 11.5519 11.292 11.4222 11.292ZM9.46667 7.38086H6.53333C6.40367 7.38086 6.27932 7.43237 6.18764 7.52405C6.09595 7.61574 6.04444 7.74009 6.04444 7.86975V11.292H9.95556V7.86975C9.95556 7.74009 9.90405 7.61574 9.81236 7.52405C9.72068 7.43237 9.59633 7.38086 9.46667 7.38086Z" stroke="black" stroke-width="1.1" stroke-linecap="round" stroke-linejoin="round"/>
<path d="M15.3333 15.203V5.03409C15.3334 4.85682 15.2853 4.68288 15.1941 4.53086C15.1029 4.37884 14.9722 4.25446 14.8158 4.17103L8.46021 0.781404C8.31866 0.705963 8.16072 0.666504 8.00033 0.666504C7.83993 0.666504 7.68199 0.705963 7.54044 0.781404L1.18489 4.17103C1.02837 4.25438 0.897459 4.37872 0.806174 4.53074C0.71489 4.68277 0.666666 4.85676 0.666667 5.03409V15.203" stroke="black" stroke-width="1.1" stroke-linecap="round" stroke-linejoin="round"/>
</g>
<defs>
<clipPath id="clip0_79_325">
<rect width="16" height="16" fill="white"/>
</clipPath>
</defs>
</svg>
