<svg width="148" height="27" viewBox="0 0 148 27" fill="none" xmlns="http://www.w3.org/2000/svg">
<path d="M9.22266 9.92578C10.6914 9.92578 11.918 8.80078 12.9023 6.55078C13.3555 5.51953 13.582 4.68359 13.582 4.04297C13.582 3.40234 13.4727 2.96094 13.2539 2.71875C13.043 2.47656 12.6211 2.35547 11.9883 2.35547C11.3633 2.35547 10.6836 2.64844 9.94922 3.23438C9.22266 3.8125 8.63672 4.54297 8.19141 5.42578C7.74609 6.30859 7.52344 7.10547 7.52344 7.81641C7.52344 8.51953 7.67969 9.04688 7.99219 9.39844C8.30469 9.75 8.71484 9.92578 9.22266 9.92578ZM15.3164 0L20.6836 0.246094C20.8867 0.246094 21.0391 0.308594 21.1406 0.433594C21.2422 0.550781 21.293 0.683594 21.293 0.832031C21.293 1.40234 21.0547 2.3125 20.5781 3.5625C20.1094 4.80469 19.6367 6.03906 19.1602 7.26562C18.6914 8.48438 18.457 9.29297 18.457 9.69141C18.457 10.082 18.5156 10.332 18.6328 10.4414C18.7578 10.5508 18.9922 10.6055 19.3359 10.6055C19.6797 10.6055 20.3047 10.4414 21.2109 10.1133C22.125 9.77734 22.7422 9.52344 23.0625 9.35156C23.3906 9.17969 23.6406 9.09375 23.8125 9.09375C24.1172 9.09375 24.2695 9.23047 24.2695 9.50391C24.2695 10.082 23.0977 10.8398 20.7539 11.7773C19.9648 12.0977 19.0117 12.3633 17.8945 12.5742C16.7852 12.793 15.6562 12.9023 14.5078 12.9023C12.5938 12.9023 11.4414 12.293 11.0508 11.0742C9.83203 12.293 8.19141 12.9023 6.12891 12.9023C4.71484 12.9023 3.51953 12.5625 2.54297 11.8828C1.48047 11.1406 0.949219 9.97266 0.949219 8.37891C0.949219 6.69922 1.44531 5.15234 2.4375 3.73828C3.52344 2.16797 4.97656 1.08594 6.79688 0.492188C7.80469 0.164062 8.88672 0 10.043 0C11.8164 0 13.1953 0.4375 14.1797 1.3125C14.1875 1.26562 14.1914 1.19141 14.1914 1.08984L14.1797 0.585938C14.1797 0.195313 14.5586 0 15.3164 0ZM26.1445 0.375L32.3438 0.246094C32.6484 0.246094 32.8008 0.398438 32.8008 0.703125C32.8008 0.882813 32.707 1.08984 32.5195 1.32422C31.8477 2.16797 31.2812 3.125 30.8203 4.19531C30.3672 5.26562 30.1406 6.35547 30.1406 7.46484C30.1406 8.62891 30.3242 9.35938 30.6914 9.65625C30.8477 9.78125 31.0469 9.84375 31.2891 9.84375C31.7969 9.84375 32.2734 9.64453 32.7188 9.24609C33.1719 8.84766 33.5547 8.34375 33.8672 7.73438C34.1875 7.125 34.4766 6.42188 34.7344 5.625C35.1641 4.25 35.4766 2.76172 35.6719 1.16016C35.6875 0.972656 35.7539 0.796875 35.8711 0.632812C35.9961 0.460938 36.1914 0.375 36.457 0.375L42.6562 0.246094C42.9609 0.246094 43.1133 0.375 43.1133 0.632812C43.1133 0.835938 43.0195 1.06641 42.832 1.32422C41.2461 3.52734 40.4531 5.65625 40.4531 7.71094C40.4531 9.05469 40.8477 9.72656 41.6367 9.72656C42.2383 9.72656 42.7969 9.47266 43.3125 8.96484C43.8281 8.45703 44.2539 7.79297 44.5898 6.97266C45.3086 5.23047 45.668 3.29297 45.668 1.16016C45.668 0.707031 45.9297 0.445312 46.4531 0.375C46.625 0.351562 47.3398 0.324219 48.5977 0.292969C49.8633 0.261719 50.6758 0.246094 51.0352 0.246094C51.3945 0.246094 51.5742 0.410156 51.5742 0.738281C51.5742 1.91016 51.25 3.08984 50.6016 4.27734C50.9609 4.34766 51.3242 4.38281 51.6914 4.38281C52.918 4.38281 54.0352 4.10156 55.043 3.53906C55.2617 3.41406 55.4453 3.35156 55.5938 3.35156C55.9062 3.35156 56.0625 3.49609 56.0625 3.78516C56.0625 4.06641 55.8945 4.33594 55.5586 4.59375C54.4336 5.45312 52.918 5.88281 51.0117 5.88281C50.5039 5.88281 50.0508 5.84375 49.6523 5.76562L49.125 6.48047C48.2109 7.69141 47.0977 8.81641 45.7852 9.85547C44.4805 10.8867 43.1484 11.7031 41.7891 12.3047C40.4375 12.8984 39.2344 13.1953 38.1797 13.1953C37.5 13.1953 36.832 12.8984 36.1758 12.3047C35.5273 11.7109 35.0039 10.957 34.6055 10.043C33.4102 11.0273 32.1992 11.8203 30.9727 12.4219C29.7461 13.0156 28.6719 13.3125 27.75 13.3125C26.4609 13.3125 25.4023 12.7539 24.5742 11.6367C23.7461 10.5195 23.332 9.05859 23.332 7.25391C23.332 6.48828 23.4922 5.45312 23.8125 4.14844C24.1406 2.84375 24.5234 1.83203 24.9609 1.11328C25.1406 0.824219 25.3086 0.628906 25.4648 0.527344C25.6211 0.425781 25.8477 0.375 26.1445 0.375ZM60.6914 9.92578C62.1602 9.92578 63.3867 8.80078 64.3711 6.55078C64.8242 5.51953 65.0508 4.68359 65.0508 4.04297C65.0508 3.40234 64.9414 2.96094 64.7227 2.71875C64.5117 2.47656 64.0898 2.35547 63.457 2.35547C62.832 2.35547 62.1523 2.64844 61.418 3.23438C60.6914 3.8125 60.1055 4.54297 59.6602 5.42578C59.2148 6.30859 58.9922 7.10547 58.9922 7.81641C58.9922 8.51953 59.1484 9.04688 59.4609 9.39844C59.7734 9.75 60.1836 9.92578 60.6914 9.92578ZM66.7852 0L72.1523 0.246094C72.3555 0.246094 72.5078 0.308594 72.6094 0.433594C72.7109 0.550781 72.7617 0.683594 72.7617 0.832031C72.7617 1.40234 72.5234 2.3125 72.0469 3.5625C71.5781 4.80469 71.1055 6.03906 70.6289 7.26562C70.1602 8.48438 69.9258 9.29297 69.9258 9.69141C69.9258 10.082 69.9844 10.332 70.1016 10.4414C70.2266 10.5508 70.4609 10.6055 70.8047 10.6055C71.1484 10.6055 71.7734 10.4414 72.6797 10.1133C73.5938 9.77734 74.2109 9.52344 74.5312 9.35156C74.8594 9.17969 75.1094 9.09375 75.2812 9.09375C75.5859 9.09375 75.7383 9.23047 75.7383 9.50391C75.7383 10.082 74.5664 10.8398 72.2227 11.7773C71.4336 12.0977 70.4805 12.3633 69.3633 12.5742C68.2539 12.793 67.125 12.9023 65.9766 12.9023C64.0625 12.9023 62.9102 12.293 62.5195 11.0742C61.3008 12.293 59.6602 12.9023 57.5977 12.9023C56.1836 12.9023 54.9883 12.5625 54.0117 11.8828C52.9492 11.1406 52.418 9.97266 52.418 8.37891C52.418 6.69922 52.9141 5.15234 53.9062 3.73828C54.9922 2.16797 56.4453 1.08594 58.2656 0.492188C59.2734 0.164062 60.3555 0 61.5117 0C63.2852 0 64.6641 0.4375 65.6484 1.3125C65.6562 1.26562 65.6602 1.19141 65.6602 1.08984L65.6484 0.585938C65.6484 0.195313 66.0273 0 66.7852 0ZM81.9844 12.8906C81.7891 12.8984 81.5 12.9023 81.1172 12.9023C79.3203 12.9023 77.625 12.7344 76.0312 12.3984C74.4453 12.0625 73.5078 11.6719 73.2188 11.2266C73.125 11.0859 73.0781 10.9102 73.0781 10.6992C73.0781 10.4883 73.3281 10.1523 73.8281 9.69141C74.3281 9.22266 74.6719 8.98828 74.8594 8.98828C75.0469 8.98828 75.2383 9.05859 75.4336 9.19922C75.6367 9.33203 75.8594 9.49609 76.1016 9.69141C76.3438 9.88672 76.6133 10.082 76.9102 10.2773C77.6211 10.7461 78.4766 10.9805 79.4766 10.9805C79.875 10.9805 80.1953 10.8789 80.4375 10.6758C80.6875 10.4727 80.8125 10.2188 80.8125 9.91406C80.8125 9.60156 80.707 9.33203 80.4961 9.10547C80.293 8.87891 80.0234 8.68359 79.6875 8.51953C79.3594 8.34766 78.9961 8.17969 78.5977 8.01562C78.1992 7.84375 77.7969 7.66016 77.3906 7.46484C76.9922 7.26172 76.625 7.04297 76.2891 6.80859C75.5469 6.28516 75.1758 5.63672 75.1758 4.86328C75.1758 4.08203 75.4102 3.40625 75.8789 2.83594C76.3555 2.26563 76.9531 1.80859 77.6719 1.46484C78.3906 1.12109 79.2031 0.832031 80.1094 0.597656C81.7031 0.199219 83.207 0 84.6211 0C86.043 0 87.3633 0.0742187 88.582 0.222656C89.8086 0.363281 90.6523 0.574219 91.1133 0.855469C91.2383 0.925781 91.3008 1.11328 91.3008 1.41797C91.3008 1.71484 91.1953 2.14453 90.9844 2.70703C90.7734 3.26172 90.5039 3.77734 90.1758 4.25391C89.8555 4.72266 89.5664 4.95703 89.3086 4.95703C89.207 4.95703 89.1211 4.91406 89.0508 4.82812C88.3086 3.9375 87.5859 3.25391 86.8828 2.77734C86.1875 2.29297 85.4297 2.05078 84.6094 2.05078C83.9844 2.05078 83.5352 2.17969 83.2617 2.4375C82.9961 2.6875 82.8633 2.94922 82.8633 3.22266C82.8633 3.49609 83.0117 3.75781 83.3086 4.00781C83.6133 4.25781 83.9883 4.48438 84.4336 4.6875C84.8867 4.89062 85.375 5.12891 85.8984 5.40234C86.4297 5.66797 86.918 5.94141 87.3633 6.22266C87.8164 6.49609 88.1914 6.84375 88.4883 7.26562C88.793 7.67969 88.9453 8.20312 88.9453 8.83594C88.9453 9.46875 88.7148 10.0859 88.2539 10.6875C90.1914 10.2969 91.707 9.81641 92.8008 9.24609C92.9883 9.14453 93.1484 9.09375 93.2812 9.09375C93.5781 9.09375 93.7266 9.24219 93.7266 9.53906C93.7266 9.78906 93.5742 10.0195 93.2695 10.2305C92.9648 10.4336 92.4609 10.6836 91.7578 10.9805C91.0547 11.2695 90.2188 11.5625 89.25 11.8594C86.9922 12.5469 84.5703 12.8906 81.9844 12.8906ZM99.9609 12.8906C99.7656 12.8984 99.4766 12.9023 99.0938 12.9023C97.2969 12.9023 95.6016 12.7344 94.0078 12.3984C92.4219 12.0625 91.4844 11.6719 91.1953 11.2266C91.1016 11.0859 91.0547 10.9102 91.0547 10.6992C91.0547 10.4883 91.3047 10.1523 91.8047 9.69141C92.3047 9.22266 92.6484 8.98828 92.8359 8.98828C93.0234 8.98828 93.2148 9.05859 93.4102 9.19922C93.6133 9.33203 93.8359 9.49609 94.0781 9.69141C94.3203 9.88672 94.5898 10.082 94.8867 10.2773C95.5977 10.7461 96.4531 10.9805 97.4531 10.9805C97.8516 10.9805 98.1719 10.8789 98.4141 10.6758C98.6641 10.4727 98.7891 10.2188 98.7891 9.91406C98.7891 9.60156 98.6836 9.33203 98.4727 9.10547C98.2695 8.87891 98 8.68359 97.6641 8.51953C97.3359 8.34766 96.9727 8.17969 96.5742 8.01562C96.1758 7.84375 95.7734 7.66016 95.3672 7.46484C94.9688 7.26172 94.6016 7.04297 94.2656 6.80859C93.5234 6.28516 93.1523 5.63672 93.1523 4.86328C93.1523 4.08203 93.3867 3.40625 93.8555 2.83594C94.332 2.26563 94.9297 1.80859 95.6484 1.46484C96.3672 1.12109 97.1797 0.832031 98.0859 0.597656C99.6797 0.199219 101.184 0 102.598 0C104.02 0 105.34 0.0742187 106.559 0.222656C107.785 0.363281 108.629 0.574219 109.09 0.855469C109.215 0.925781 109.277 1.11328 109.277 1.41797C109.277 1.71484 109.172 2.14453 108.961 2.70703C108.75 3.26172 108.48 3.77734 108.152 4.25391C107.832 4.72266 107.543 4.95703 107.285 4.95703C107.184 4.95703 107.098 4.91406 107.027 4.82812C106.285 3.9375 105.562 3.25391 104.859 2.77734C104.164 2.29297 103.406 2.05078 102.586 2.05078C101.961 2.05078 101.512 2.17969 101.238 2.4375C100.973 2.6875 100.84 2.94922 100.84 3.22266C100.84 3.49609 100.988 3.75781 101.285 4.00781C101.59 4.25781 101.965 4.48438 102.41 4.6875C102.863 4.89062 103.352 5.12891 103.875 5.40234C104.406 5.66797 104.895 5.94141 105.34 6.22266C105.793 6.49609 106.168 6.84375 106.465 7.26562C106.77 7.67969 106.922 8.20312 106.922 8.83594C106.922 9.46875 106.691 10.0859 106.23 10.6875C108.168 10.2969 109.684 9.81641 110.777 9.24609C110.965 9.14453 111.125 9.09375 111.258 9.09375C111.555 9.09375 111.703 9.24219 111.703 9.53906C111.703 9.78906 111.551 10.0195 111.246 10.2305C110.941 10.4336 110.438 10.6836 109.734 10.9805C109.031 11.2695 108.195 11.5625 107.227 11.8594C104.969 12.5469 102.547 12.8906 99.9609 12.8906Z" fill="url(#paint0_linear_184_11238)"/>
<path d="M121.62 12.4336L125.364 0.753593H130.132L134.004 12.4336H130.932L127.924 2.83359L128.772 3.15359H126.66L127.524 2.83359L124.596 12.4336H121.62ZM124.676 9.72959L125.572 7.29759H130.004L130.9 9.72959H124.676ZM135.349 12.4336V0.753593H138.325V12.4336H135.349Z" fill="#C58D2A"/>
<path d="M2.016 24.5476C1.62 24.5476 1.286 24.4856 1.014 24.3616C0.742 24.2336 0.536 24.0616 0.396 23.8456C0.256 23.6256 0.186 23.3736 0.186 23.0896H1.14C1.14 23.2016 1.17 23.3056 1.23 23.4016C1.294 23.4976 1.39 23.5756 1.518 23.6356C1.646 23.6916 1.812 23.7196 2.016 23.7196C2.2 23.7196 2.354 23.6956 2.478 23.6476C2.602 23.5996 2.696 23.5336 2.76 23.4496C2.824 23.3616 2.856 23.2616 2.856 23.1496C2.856 23.0096 2.796 22.8996 2.676 22.8196C2.556 22.7356 2.362 22.6816 2.094 22.6576L1.764 22.6276C1.328 22.5916 0.98 22.4556 0.72 22.2196C0.46 21.9836 0.33 21.6716 0.33 21.2836C0.33 21.0036 0.396 20.7616 0.528 20.5576C0.664 20.3536 0.852 20.1976 1.092 20.0896C1.332 19.9776 1.616 19.9216 1.944 19.9216C2.288 19.9216 2.582 19.9816 2.826 20.1016C3.074 20.2176 3.264 20.3836 3.396 20.5996C3.528 20.8116 3.594 21.0616 3.594 21.3496H2.634C2.634 21.2416 2.608 21.1436 2.556 21.0556C2.504 20.9636 2.426 20.8896 2.322 20.8336C2.222 20.7776 2.096 20.7496 1.944 20.7496C1.8 20.7496 1.678 20.7736 1.578 20.8216C1.482 20.8696 1.41 20.9356 1.362 21.0196C1.314 21.0996 1.29 21.1876 1.29 21.2836C1.29 21.4076 1.334 21.5156 1.422 21.6076C1.51 21.6996 1.654 21.7536 1.854 21.7696L2.19 21.7996C2.51 21.8276 2.792 21.8976 3.036 22.0096C3.28 22.1176 3.47 22.2676 3.606 22.4596C3.746 22.6476 3.816 22.8776 3.816 23.1496C3.816 23.4296 3.742 23.6756 3.594 23.8876C3.45 24.0956 3.244 24.2576 2.976 24.3736C2.708 24.4896 2.388 24.5476 2.016 24.5476ZM6.29395 24.4336V20.0536H7.64995L8.65195 22.5136H8.76595L9.75595 20.0536H11.136V24.4336H10.164V20.6956L10.302 20.7076L9.14395 23.5456H8.20795L7.04395 20.7076L7.19395 20.6956V24.4336H6.29395ZM13.5042 24.4336L14.9502 20.0536H16.5402L18.0402 24.4336H17.0202L15.8082 20.7316L16.1202 20.8576H15.3462L15.6702 20.7316L14.4882 24.4336H13.5042ZM14.6022 23.3476L14.9022 22.5316H16.6182L16.9242 23.3476H14.6022ZM20.4115 24.4336V20.0176H21.3955V24.4336H20.4115ZM23.0695 24.4336L21.7855 22.5496H22.8655L24.2095 24.4336H23.0695ZM21.1315 23.0296V22.2556H22.2115C22.3555 22.2556 22.4795 22.2276 22.5835 22.1716C22.6915 22.1116 22.7735 22.0296 22.8295 21.9256C22.8895 21.8176 22.9195 21.6936 22.9195 21.5536C22.9195 21.4136 22.8895 21.2916 22.8295 21.1876C22.7735 21.0796 22.6915 20.9976 22.5835 20.9416C22.4795 20.8816 22.3555 20.8516 22.2115 20.8516H21.1315V20.0176H22.1335C22.4975 20.0176 22.8135 20.0736 23.0815 20.1856C23.3495 20.2936 23.5555 20.4556 23.6995 20.6716C23.8435 20.8876 23.9155 21.1596 23.9155 21.4876V21.5836C23.9155 21.9076 23.8415 22.1776 23.6935 22.3936C23.5495 22.6056 23.3435 22.7656 23.0755 22.8736C22.8115 22.9776 22.4975 23.0296 22.1335 23.0296H21.1315ZM27.3413 24.4336V20.7916H28.3253V24.4336H27.3413ZM26.1113 20.9116V20.0536H29.5613V20.9116H26.1113ZM35.052 24.4336V20.0536H36.036V24.4336H35.052ZM38.8322 24.4336V20.0536H40.4462L42.0962 23.6356H42.3002L42.1802 23.7436V20.0536H43.1042V24.4336H41.4782L39.8282 20.8516H39.6242L39.7442 20.7436V24.4336H38.8322ZM46.8541 24.4336L45.5221 20.0536H46.5361L47.5921 23.7496L47.3641 23.6356H47.9761L47.7361 23.7496L48.7141 20.0536H49.6981L48.4561 24.4336H46.8541ZM52.1295 24.4336V20.0536H53.0895V24.4336H52.1295ZM52.9695 24.4336V23.6176H54.8835V24.4336H52.9695ZM52.9695 22.6156V21.7996H54.7455V22.6156H52.9695ZM52.9695 20.8696V20.0536H54.8415V20.8696H52.9695ZM57.492 24.4336V20.0536H59.106L60.756 23.6356H60.96L60.84 23.7436V20.0536H61.764V24.4336H60.138L58.488 20.8516H58.284L58.404 20.7436V24.4336H57.492ZM65.4179 24.4336V20.7916H66.4019V24.4336H65.4179ZM64.1879 20.9116V20.0536H67.6379V20.9116H64.1879ZM72.0338 24.5476C71.6378 24.5476 71.2918 24.4796 70.9958 24.3436C70.7038 24.2036 70.4618 24.0216 70.2698 23.7976C70.0778 23.5696 69.9338 23.3236 69.8378 23.0596C69.7458 22.7956 69.6998 22.5416 69.6998 22.2976V22.1656C69.6998 21.8936 69.7478 21.6256 69.8438 21.3616C69.9438 21.0936 70.0918 20.8516 70.2878 20.6356C70.4838 20.4196 70.7278 20.2476 71.0198 20.1196C71.3118 19.9876 71.6498 19.9216 72.0338 19.9216C72.4178 19.9216 72.7558 19.9876 73.0478 20.1196C73.3398 20.2476 73.5838 20.4196 73.7798 20.6356C73.9758 20.8516 74.1238 21.0936 74.2238 21.3616C74.3238 21.6256 74.3738 21.8936 74.3738 22.1656V22.2976C74.3738 22.5416 74.3258 22.7956 74.2298 23.0596C74.1338 23.3236 73.9898 23.5696 73.7978 23.7976C73.6058 24.0216 73.3618 24.2036 73.0658 24.3436C72.7738 24.4796 72.4298 24.5476 72.0338 24.5476ZM72.0338 23.6296C72.2418 23.6296 72.4278 23.5936 72.5918 23.5216C72.7598 23.4496 72.9018 23.3496 73.0178 23.2216C73.1378 23.0936 73.2278 22.9456 73.2878 22.7776C73.3478 22.6096 73.3778 22.4296 73.3778 22.2376C73.3778 22.0336 73.3458 21.8476 73.2818 21.6796C73.2218 21.5076 73.1318 21.3596 73.0118 21.2356C72.8958 21.1076 72.7558 21.0096 72.5918 20.9416C72.4278 20.8736 72.2418 20.8396 72.0338 20.8396C71.8258 20.8396 71.6398 20.8736 71.4758 20.9416C71.3118 21.0096 71.1698 21.1076 71.0498 21.2356C70.9338 21.3596 70.8458 21.5076 70.7858 21.6796C70.7258 21.8476 70.6958 22.0336 70.6958 22.2376C70.6958 22.4296 70.7258 22.6096 70.7858 22.7776C70.8458 22.9456 70.9338 23.0936 71.0498 23.2216C71.1698 23.3496 71.3118 23.4496 71.4758 23.5216C71.6398 23.5936 71.8258 23.6296 72.0338 23.6296ZM76.9193 24.4336V20.0176H77.9033V24.4336H76.9193ZM79.5773 24.4336L78.2933 22.5496H79.3733L80.7173 24.4336H79.5773ZM77.6393 23.0296V22.2556H78.7193C78.8633 22.2556 78.9873 22.2276 79.0913 22.1716C79.1993 22.1116 79.2813 22.0296 79.3373 21.9256C79.3973 21.8176 79.4273 21.6936 79.4273 21.5536C79.4273 21.4136 79.3973 21.2916 79.3373 21.1876C79.2813 21.0796 79.1993 20.9976 79.0913 20.9416C78.9873 20.8816 78.8633 20.8516 78.7193 20.8516H77.6393V20.0176H78.6413C79.0053 20.0176 79.3213 20.0736 79.5893 20.1856C79.8573 20.2936 80.0633 20.4556 80.2073 20.6716C80.3513 20.8876 80.4233 21.1596 80.4233 21.4876V21.5836C80.4233 21.9076 80.3493 22.1776 80.2013 22.3936C80.0573 22.6056 79.8513 22.7656 79.5833 22.8736C79.3193 22.9776 79.0053 23.0296 78.6413 23.0296H77.6393ZM83.7427 22.7716L82.4647 20.0536H83.4727L84.3907 22.0876L84.2167 22.0336H84.7207L84.5347 22.0876L85.3627 20.0536H86.3167L85.1407 22.7716H83.7427ZM83.9587 24.4336V22.6336H84.9247V24.4336H83.9587ZM91.3038 24.4336L92.7498 20.0536H94.3398L95.8398 24.4336H94.8198L93.6078 20.7316L93.9198 20.8576H93.1458L93.4698 20.7316L92.2878 24.4336H91.3038ZM92.4018 23.3476L92.7018 22.5316H94.4178L94.7238 23.3476H92.4018ZM99.7117 24.5476C99.3157 24.5476 98.9817 24.4856 98.7097 24.3616C98.4377 24.2336 98.2317 24.0616 98.0917 23.8456C97.9517 23.6256 97.8817 23.3736 97.8817 23.0896H98.8357C98.8357 23.2016 98.8657 23.3056 98.9257 23.4016C98.9897 23.4976 99.0857 23.5756 99.2137 23.6356C99.3417 23.6916 99.5077 23.7196 99.7117 23.7196C99.8957 23.7196 100.05 23.6956 100.174 23.6476C100.298 23.5996 100.392 23.5336 100.456 23.4496C100.52 23.3616 100.552 23.2616 100.552 23.1496C100.552 23.0096 100.492 22.8996 100.372 22.8196C100.252 22.7356 100.058 22.6816 99.7897 22.6576L99.4597 22.6276C99.0237 22.5916 98.6757 22.4556 98.4157 22.2196C98.1557 21.9836 98.0257 21.6716 98.0257 21.2836C98.0257 21.0036 98.0917 20.7616 98.2237 20.5576C98.3597 20.3536 98.5477 20.1976 98.7877 20.0896C99.0277 19.9776 99.3117 19.9216 99.6397 19.9216C99.9837 19.9216 100.278 19.9816 100.522 20.1016C100.77 20.2176 100.96 20.3836 101.092 20.5996C101.224 20.8116 101.29 21.0616 101.29 21.3496H100.33C100.33 21.2416 100.304 21.1436 100.252 21.0556C100.2 20.9636 100.122 20.8896 100.018 20.8336C99.9177 20.7776 99.7917 20.7496 99.6397 20.7496C99.4957 20.7496 99.3737 20.7736 99.2737 20.8216C99.1777 20.8696 99.1057 20.9356 99.0577 21.0196C99.0097 21.0996 98.9857 21.1876 98.9857 21.2836C98.9857 21.4076 99.0297 21.5156 99.1177 21.6076C99.2057 21.6996 99.3497 21.7536 99.5497 21.7696L99.8857 21.7996C100.206 21.8276 100.488 21.8976 100.732 22.0096C100.976 22.1176 101.166 22.2676 101.302 22.4596C101.442 22.6476 101.512 22.8776 101.512 23.1496C101.512 23.4296 101.438 23.6756 101.29 23.8876C101.146 24.0956 100.94 24.2576 100.672 24.3736C100.404 24.4896 100.084 24.5476 99.7117 24.5476ZM105.514 24.5476C105.118 24.5476 104.784 24.4856 104.512 24.3616C104.24 24.2336 104.034 24.0616 103.894 23.8456C103.754 23.6256 103.684 23.3736 103.684 23.0896H104.638C104.638 23.2016 104.668 23.3056 104.728 23.4016C104.792 23.4976 104.888 23.5756 105.016 23.6356C105.144 23.6916 105.31 23.7196 105.514 23.7196C105.698 23.7196 105.852 23.6956 105.976 23.6476C106.1 23.5996 106.194 23.5336 106.258 23.4496C106.322 23.3616 106.354 23.2616 106.354 23.1496C106.354 23.0096 106.294 22.8996 106.174 22.8196C106.054 22.7356 105.86 22.6816 105.592 22.6576L105.262 22.6276C104.826 22.5916 104.478 22.4556 104.218 22.2196C103.958 21.9836 103.828 21.6716 103.828 21.2836C103.828 21.0036 103.894 20.7616 104.026 20.5576C104.162 20.3536 104.35 20.1976 104.59 20.0896C104.83 19.9776 105.114 19.9216 105.442 19.9216C105.786 19.9216 106.08 19.9816 106.324 20.1016C106.572 20.2176 106.762 20.3836 106.894 20.5996C107.026 20.8116 107.092 21.0616 107.092 21.3496H106.132C106.132 21.2416 106.106 21.1436 106.054 21.0556C106.002 20.9636 105.924 20.8896 105.82 20.8336C105.72 20.7776 105.594 20.7496 105.442 20.7496C105.298 20.7496 105.176 20.7736 105.076 20.8216C104.98 20.8696 104.908 20.9356 104.86 21.0196C104.812 21.0996 104.788 21.1876 104.788 21.2836C104.788 21.4076 104.832 21.5156 104.92 21.6076C105.008 21.6996 105.152 21.7536 105.352 21.7696L105.688 21.7996C106.008 21.8276 106.29 21.8976 106.534 22.0096C106.778 22.1176 106.968 22.2676 107.104 22.4596C107.244 22.6476 107.314 22.8776 107.314 23.1496C107.314 23.4296 107.24 23.6756 107.092 23.8876C106.948 24.0956 106.742 24.2576 106.474 24.3736C106.206 24.4896 105.886 24.5476 105.514 24.5476ZM109.804 24.4336V20.0536H110.788V24.4336H109.804ZM115.108 24.5476C114.712 24.5476 114.378 24.4856 114.106 24.3616C113.834 24.2336 113.628 24.0616 113.488 23.8456C113.348 23.6256 113.278 23.3736 113.278 23.0896H114.232C114.232 23.2016 114.262 23.3056 114.322 23.4016C114.386 23.4976 114.482 23.5756 114.61 23.6356C114.738 23.6916 114.904 23.7196 115.108 23.7196C115.292 23.7196 115.446 23.6956 115.57 23.6476C115.694 23.5996 115.788 23.5336 115.852 23.4496C115.916 23.3616 115.948 23.2616 115.948 23.1496C115.948 23.0096 115.888 22.8996 115.768 22.8196C115.648 22.7356 115.454 22.6816 115.186 22.6576L114.856 22.6276C114.42 22.5916 114.072 22.4556 113.812 22.2196C113.552 21.9836 113.422 21.6716 113.422 21.2836C113.422 21.0036 113.488 20.7616 113.62 20.5576C113.756 20.3536 113.944 20.1976 114.184 20.0896C114.424 19.9776 114.708 19.9216 115.036 19.9216C115.38 19.9216 115.674 19.9816 115.918 20.1016C116.166 20.2176 116.356 20.3836 116.488 20.5996C116.62 20.8116 116.686 21.0616 116.686 21.3496H115.726C115.726 21.2416 115.7 21.1436 115.648 21.0556C115.596 20.9636 115.518 20.8896 115.414 20.8336C115.314 20.7776 115.188 20.7496 115.036 20.7496C114.892 20.7496 114.77 20.7736 114.67 20.8216C114.574 20.8696 114.502 20.9356 114.454 21.0196C114.406 21.0996 114.382 21.1876 114.382 21.2836C114.382 21.4076 114.426 21.5156 114.514 21.6076C114.602 21.6996 114.746 21.7536 114.946 21.7696L115.282 21.7996C115.602 21.8276 115.884 21.8976 116.128 22.0096C116.372 22.1176 116.562 22.2676 116.698 22.4596C116.838 22.6476 116.908 22.8776 116.908 23.1496C116.908 23.4296 116.834 23.6756 116.686 23.8876C116.542 24.0956 116.336 24.2576 116.068 24.3736C115.8 24.4896 115.48 24.5476 115.108 24.5476ZM120.133 24.4336V20.7916H121.117V24.4336H120.133ZM118.903 20.9116V20.0536H122.353V20.9116H118.903ZM123.971 24.4336L125.417 20.0536H127.007L128.507 24.4336H127.487L126.275 20.7316L126.587 20.8576H125.813L126.137 20.7316L124.955 24.4336H123.971ZM125.069 23.3476L125.369 22.5316H127.085L127.391 23.3476H125.069ZM130.878 24.4336V20.0536H132.492L134.142 23.6356H134.346L134.226 23.7436V20.0536H135.15V24.4336H133.524L131.874 20.8516H131.67L131.79 20.7436V24.4336H130.878ZM138.804 24.4336V20.7916H139.788V24.4336H138.804ZM137.574 20.9116V20.0536H141.024V20.9116H137.574Z" fill="#C99230"/>
<defs>
<linearGradient id="paint0_linear_184_11238" x1="148" y1="6.43359" x2="1.74588e-06" y2="6.43364" gradientUnits="userSpaceOnUse">
<stop stop-color="#C58D2A"/>
<stop offset="1" stop-color="#FFD07D"/>
</linearGradient>
</defs>
</svg>
