<svg width="67" height="67" viewBox="0 0 67 67" fill="none" xmlns="http://www.w3.org/2000/svg">
<path fill-rule="evenodd" clip-rule="evenodd" d="M59.8214 59.8216C61.7253 59.8216 63.5512 59.0653 64.8974 57.719C66.2437 56.3728 67 54.5469 67 52.643V14.3573C67 12.4534 66.2437 10.6275 64.8974 9.28127C63.5512 7.93502 61.7253 7.17871 59.8214 7.17871H7.17857C5.2747 7.17871 3.4488 7.93502 2.10255 9.28127C0.756312 10.6275 0 12.4534 0 14.3573L0 52.643C0 54.5469 0.756312 56.3728 2.10255 57.719C3.4488 59.0653 5.2747 59.8216 7.17857 59.8216H59.8214Z" fill="#F3E8D4"/>
<path d="M45.4738 30.7913C47.3358 30.7913 49.1215 30.0516 50.4381 28.735C51.7547 27.4184 52.4944 25.6326 52.4944 23.7706C52.4944 21.9087 51.7547 20.1229 50.4381 18.8063C49.1215 17.4897 47.3358 16.75 45.4738 16.75C43.6118 16.75 41.826 17.4897 40.5094 18.8063C39.1928 20.1229 38.4531 21.9087 38.4531 23.7706C38.4531 25.6326 39.1928 27.4184 40.5094 28.735C41.826 30.0516 43.6118 30.7913 45.4738 30.7913Z" fill="#D7B06A"/>
<path fill-rule="evenodd" clip-rule="evenodd" d="M7.17857 59.8214H41.0758C39.5902 51.9065 35.3406 44.7769 29.0853 39.705C22.83 34.6331 14.976 31.9488 6.92493 32.1313C4.60128 32.1249 2.28237 32.3413 0 32.7774L0 52.6429C0 54.5467 0.756312 56.3726 2.10255 57.7189C3.4488 59.0651 5.2747 59.8214 7.17857 59.8214Z" fill="#D7B06A"/>
<path fill-rule="evenodd" clip-rule="evenodd" d="M41.205 44.3444C44.0407 48.7137 45.9934 53.5961 46.9526 58.7159C47.0244 59.0844 47.0579 59.4529 47.0579 59.8214H59.8214C61.7203 59.8214 63.5419 59.069 64.8873 57.729C66.2327 56.3889 66.9924 54.5704 67 52.6715V44.4544C62.8123 43.041 58.4218 42.3217 54.002 42.3248C49.6547 42.3153 45.3382 42.997 41.205 44.3444Z" fill="#D7B06A"/>
</svg>
