<svg width="16" height="16" viewBox="0 0 16 16" fill="none" xmlns="http://www.w3.org/2000/svg">
<g clip-path="url(#clip0_121_2729)">
<path d="M11.7637 13.5273C11.7637 13.8027 11.704 14.0628 11.5977 14.2969L11.2119 15.1455H12.7998C13.2289 15.1455 13.6409 14.9753 13.9443 14.6719C14.2478 14.3684 14.418 13.9565 14.418 13.5273V3.76367H11.7637V13.5273ZM5.09082 6.67285C4.73884 6.67288 4.40123 6.81263 4.15234 7.06152C3.90346 7.31043 3.76367 7.64801 3.76367 8V9.4541C3.76367 9.80612 3.90343 10.1446 4.15234 10.3936C4.40121 10.6423 4.73894 10.7822 5.09082 10.7822C5.44269 10.7822 5.78042 10.6423 6.0293 10.3936C6.27821 10.1446 6.41797 9.80612 6.41797 9.4541V8C6.41797 7.64799 6.27821 7.31044 6.0293 7.06152C5.78039 6.81264 5.44281 6.67285 5.09082 6.67285ZM8 6.67285C7.64799 6.67285 7.31044 6.81261 7.06152 7.06152C6.81261 7.31044 6.67285 7.64799 6.67285 8V9.4541C6.67285 9.80612 6.81261 10.1446 7.06152 10.3936C7.31041 10.6423 7.64811 10.7822 8 10.7822C8.35189 10.7822 8.68959 10.6423 8.93848 10.3936C9.18739 10.1446 9.32715 9.80612 9.32715 9.4541V8C9.32715 7.64799 9.18739 7.31044 8.93848 7.06152C8.68956 6.81261 8.35201 6.67285 8 6.67285ZM5.09082 2.30957C4.73884 2.30959 4.40123 2.44935 4.15234 2.69824C3.90357 2.94713 3.76367 3.28481 3.76367 3.63672V5.09082C3.76367 5.44279 3.90349 5.78039 4.15234 6.0293C4.40123 6.27819 4.73884 6.41795 5.09082 6.41797C5.44284 6.41797 5.78039 6.27821 6.0293 6.0293C6.27821 5.78039 6.41797 5.44284 6.41797 5.09082V3.63672C6.41797 3.28477 6.27813 2.94714 6.0293 2.69824C5.78039 2.44933 5.44284 2.30957 5.09082 2.30957ZM8 2.30957C7.64799 2.30957 7.31044 2.44933 7.06152 2.69824C6.81272 2.94714 6.67285 3.28479 6.67285 3.63672V5.09082C6.67285 5.44281 6.81264 5.78039 7.06152 6.0293C7.31044 6.27821 7.64799 6.41797 8 6.41797C8.35202 6.41797 8.68956 6.27821 8.93848 6.0293C9.18736 5.78039 9.32715 5.44281 9.32715 5.09082V3.63672C9.32715 3.28479 9.18728 2.94714 8.93848 2.69824C8.68956 2.44933 8.35202 2.30957 8 2.30957ZM6.41797 14.418H6.67285V15.4004H6.41797V14.418ZM1.32715 0.854492H0.727539C0.69391 0.854492 0.661538 0.841084 0.637695 0.817383C0.61389 0.793577 0.599679 0.761198 0.599609 0.727539C0.599609 0.693784 0.613827 0.661564 0.637695 0.637695C0.661564 0.613827 0.693784 0.599609 0.727539 0.599609H12.3633C12.397 0.599609 12.4302 0.613827 12.4541 0.637695C12.4777 0.661519 12.4912 0.693992 12.4912 0.727539C12.4911 0.761116 12.4778 0.793595 12.4541 0.817383C12.4302 0.841251 12.397 0.854492 12.3633 0.854492H11.7637V3.50879H15.2725C15.306 3.50879 15.3385 3.52231 15.3623 3.5459C15.3862 3.56977 15.4004 3.60296 15.4004 3.63672C15.4003 3.67035 15.3861 3.70278 15.3623 3.72656C15.3385 3.75024 15.3061 3.76367 15.2725 3.76367H14.6729V13.5273C14.6728 14.024 14.4752 14.5004 14.124 14.8516C13.7728 15.2027 13.2964 15.4004 12.7998 15.4004H9.32715V13.6729C9.32715 13.1667 9.1263 12.6812 8.76855 12.3232C8.41053 11.9652 7.92429 11.7637 7.41797 11.7637H5.67285C5.16653 11.7637 4.68127 11.9652 4.32324 12.3232C3.96522 12.6813 3.76367 13.1665 3.76367 13.6729V15.4004H3.2002C2.70358 15.4004 2.22717 15.2027 1.87598 14.8516C1.52479 14.5004 1.32717 14.024 1.32715 13.5273V0.854492Z" fill="#B27F26" stroke="#B27F26" stroke-width="1.2"/>
</g>
<defs>
<clipPath id="clip0_121_2729">
<rect width="16" height="16" fill="white"/>
</clipPath>
</defs>
</svg>
