<svg width="16" height="16" viewBox="0 0 16 16" fill="none" xmlns="http://www.w3.org/2000/svg">
<g clip-path="url(#clip0_79_1097)">
<path d="M3.51824 4.33305C3.51824 4.54913 3.60408 4.75636 3.75687 4.90915C3.90967 5.06194 4.1169 5.14778 4.33298 5.14778C4.54906 5.14778 4.75629 5.06194 4.90908 4.90915C5.06188 4.75636 5.14771 4.54913 5.14771 4.33305C5.14771 4.11696 5.06188 3.90973 4.90908 3.75694C4.75629 3.60415 4.54906 3.51831 4.33298 3.51831C4.1169 3.51831 3.90967 3.60415 3.75687 3.75694C3.60408 3.90973 3.51824 4.11696 3.51824 4.33305Z" stroke="black" stroke-linecap="round" stroke-linejoin="round"/>
<path d="M0.666667 3.11096V7.32477C0.666759 7.7569 0.838495 8.17129 1.1441 8.47681L7.42571 14.7584C7.79394 15.1266 8.29332 15.3334 8.81402 15.3334C9.33473 15.3334 9.83411 15.1266 10.2023 14.7584L14.7583 10.2024C15.1265 9.83419 15.3333 9.33481 15.3333 8.81411C15.3333 8.2934 15.1265 7.79402 14.7583 7.4258L8.47672 1.14418C8.17121 0.838577 7.75682 0.66684 7.32469 0.666748H3.11087C2.46263 0.666748 1.84094 0.924262 1.38256 1.38264C0.924181 1.84102 0.666667 2.46271 0.666667 3.11096Z" stroke="black" stroke-linecap="round" stroke-linejoin="round"/>
</g>
<defs>
<clipPath id="clip0_79_1097">
<rect width="16" height="16" fill="white"/>
</clipPath>
</defs>
</svg>
