<svg width="16" height="16" viewBox="0 0 16 16" fill="none" xmlns="http://www.w3.org/2000/svg">
<g clip-path="url(#clip0_100_5142)">
<path d="M1.69819 11.3082C2.38742 12.7021 3.50552 13.8382 4.88821 14.5496C6.26078 15.2547 7.82596 15.4928 9.3461 15.2275C10.8709 14.9592 12.2678 14.2045 13.3281 13.0764C14.3979 11.9373 15.0792 10.4884 15.2739 8.93792C15.4713 7.38385 15.1737 5.8071 14.4232 4.43196C13.6797 3.06729 12.5174 1.97758 11.1077 1.32342C9.70763 0.674957 8.13417 0.501018 6.62622 0.828009C5.11881 1.15475 3.88354 1.89787 2.86175 3.07284C2.73871 3.20321 2.26286 3.72959 1.86767 4.52404M4.33332 4.74078L1.39263 5.32745L0.666626 2.29632M8.00001 5.5556V8.81488L10.4445 10.4445" stroke="black" stroke-linecap="round" stroke-linejoin="round"/>
</g>
<defs>
<clipPath id="clip0_100_5142">
<rect width="16" height="16" fill="white"/>
</clipPath>
</defs>
</svg>
