<svg width="16" height="16" viewBox="0 0 16 16" fill="none" xmlns="http://www.w3.org/2000/svg">
<path d="M13.7335 6.53349C13.7335 10.1951 9.6715 14.0084 8.30748 15.1862C8.18041 15.2817 8.02573 15.3334 7.86674 15.3334C7.70775 15.3334 7.55307 15.2817 7.426 15.1862C6.06198 14.0084 2 10.1951 2 6.53349C2 4.97753 2.6181 3.4853 3.71833 2.38508C4.81856 1.28485 6.31078 0.666748 7.86674 0.666748C9.4227 0.666748 10.9149 1.28485 12.0152 2.38508C13.1154 3.4853 13.7335 4.97753 13.7335 6.53349Z" stroke="black" stroke-linecap="round" stroke-linejoin="round"/>
<path d="M7.86674 8.73355C9.08178 8.73355 10.0668 7.74857 10.0668 6.53352C10.0668 5.31848 9.08178 4.3335 7.86674 4.3335C6.6517 4.3335 5.66671 5.31848 5.66671 6.53352C5.66671 7.74857 6.6517 8.73355 7.86674 8.73355Z" stroke="black" stroke-linecap="round" stroke-linejoin="round"/>
</svg>
