<svg width="16" height="16" viewBox="0 0 16 16" fill="none" xmlns="http://www.w3.org/2000/svg">
<path d="M13.7335 6.5334C13.7335 10.195 9.6715 14.0084 8.30748 15.1861C8.18041 15.2817 8.02573 15.3333 7.86674 15.3333C7.70775 15.3333 7.55307 15.2817 7.426 15.1861C6.06198 14.0084 2 10.195 2 6.5334C2 4.97744 2.6181 3.48521 3.71833 2.38498C4.81856 1.28476 6.31078 0.666656 7.86674 0.666656C9.4227 0.666656 10.9149 1.28476 12.0152 2.38498C13.1154 3.48521 13.7335 4.97744 13.7335 6.5334Z" fill="#B27F26" stroke="#B27F26" stroke-width="1.2" stroke-linecap="round" stroke-linejoin="round"/>
<path d="M7.86678 8.73343C9.08182 8.73343 10.0668 7.74844 10.0668 6.5334C10.0668 5.31836 9.08182 4.33337 7.86678 4.33337C6.65173 4.33337 5.66675 5.31836 5.66675 6.5334C5.66675 7.74844 6.65173 8.73343 7.86678 8.73343Z" fill="#F3E8D4" stroke="#B27F26" stroke-linecap="round" stroke-linejoin="round"/>
</svg>
