<svg width="24" height="24" viewBox="0 0 24 24" fill="none" xmlns="http://www.w3.org/2000/svg">
<path d="M15.3 3C15.8835 3 16.4431 3.22388 16.8556 3.6224C17.2682 4.02091 17.5 4.56141 17.5 5.125V6.1875H19.172C19.5017 6.18754 19.8273 6.25918 20.1245 6.39711C20.4217 6.53504 20.683 6.73574 20.8891 6.98438L22.5171 8.95106C22.8296 9.32792 22.9999 9.79634 23 10.2792V14.6875C23 15.2511 22.7682 15.7916 22.3556 16.1901C21.9431 16.5886 21.3835 16.8125 20.8 16.8125H19.7C19.7 17.6579 19.3523 18.4686 18.7335 19.0664C18.1146 19.6642 17.2752 20 16.4 20C15.5248 20 14.6854 19.6642 14.0665 19.0664C13.4477 18.4686 13.1 17.6579 13.1 16.8125H9.8C9.8 17.2311 9.71464 17.6456 9.5488 18.0323C9.38296 18.419 9.13989 18.7704 8.83345 19.0664C8.52702 19.3624 8.16323 19.5972 7.76286 19.7574C7.36248 19.9176 6.93336 20 6.5 20C6.06664 20 5.63752 19.9176 5.23714 19.7574C4.83677 19.5972 4.47298 19.3624 4.16655 19.0664C3.86011 18.7704 3.61704 18.419 3.4512 18.0323C3.28536 17.6456 3.2 17.2311 3.2 16.8125C2.61652 16.8125 2.05695 16.5886 1.64437 16.1901C1.23178 15.7916 1 15.2511 1 14.6875V5.125C1 4.56141 1.23178 4.02091 1.64437 3.6224C2.05695 3.22388 2.61652 3 3.2 3H15.3ZM6.5 15.75C6.20826 15.75 5.92847 15.8619 5.72218 16.0612C5.51589 16.2605 5.4 16.5307 5.4 16.8125C5.4 17.0943 5.51589 17.3645 5.72218 17.5638C5.92847 17.7631 6.20826 17.875 6.5 17.875C6.79174 17.875 7.07153 17.7631 7.27782 17.5638C7.48411 17.3645 7.6 17.0943 7.6 16.8125C7.6 16.5307 7.48411 16.2605 7.27782 16.0612C7.07153 15.8619 6.79174 15.75 6.5 15.75ZM16.4 15.75C16.1083 15.75 15.8285 15.8619 15.6222 16.0612C15.4159 16.2605 15.3 16.5307 15.3 16.8125C15.3 17.0943 15.4159 17.3645 15.6222 17.5638C15.8285 17.7631 16.1083 17.875 16.4 17.875C16.6917 17.875 16.9715 17.7631 17.1778 17.5638C17.3841 17.3645 17.5 17.0943 17.5 16.8125C17.5 16.5307 17.3841 16.2605 17.1778 16.0612C16.9715 15.8619 16.6917 15.75 16.4 15.75ZM19.172 8.3125H17.5V12.5625H20.8V10.2781L19.172 8.3125Z" fill="#B27F26"/>
</svg>
