<svg width="16" height="16" viewBox="0 0 16 16" fill="none" xmlns="http://www.w3.org/2000/svg">
<g clip-path="url(#clip0_101_135)">
<path d="M13.5 15.3334C13.7917 15.3334 14.0715 15.2175 14.2778 15.0112C14.4841 14.8049 14.6 14.5251 14.6 14.2334C14.6 13.9416 14.4841 13.6618 14.2778 13.4555C14.0715 13.2493 13.7917 13.1334 13.5 13.1334C13.2082 13.1334 12.9285 13.2493 12.7222 13.4555C12.5159 13.6618 12.4 13.9416 12.4 14.2334C12.4 14.5251 12.5159 14.8049 12.7222 15.0112C12.9285 15.2175 13.2082 15.3334 13.5 15.3334ZM6.16665 15.3334C6.45839 15.3334 6.73818 15.2175 6.94447 15.0112C7.15076 14.8049 7.26665 14.5251 7.26665 14.2334C7.26665 13.9416 7.15076 13.6618 6.94447 13.4555C6.73818 13.2493 6.45839 13.1334 6.16665 13.1334C5.87491 13.1334 5.59512 13.2493 5.38883 13.4555C5.18254 13.6618 5.06665 13.9416 5.06665 14.2334C5.06665 14.5251 5.18254 14.8049 5.38883 15.0112C5.59512 15.2175 5.87491 15.3334 6.16665 15.3334Z" fill="black" stroke="black" stroke-linecap="round" stroke-linejoin="round"/>
<path d="M2.86663 2.13335H15.3333L13.8666 10.2M2.86663 2.13335L4.33329 10.2H13.8666M2.86663 2.13335C2.74416 1.64422 2.13329 0.666687 0.666626 0.666687M13.8666 10.2H3.03529C1.72703 10.2 1.03329 10.7728 1.03329 11.6667C1.03329 12.5606 1.72703 13.1334 3.03529 13.1334H13.5" stroke="black" stroke-linecap="round" stroke-linejoin="round"/>
</g>
<defs>
<clipPath id="clip0_101_135">
<rect width="16" height="16" fill="white"/>
</clipPath>
</defs>
</svg>
