<svg width="16" height="16" viewBox="0 0 16 16" fill="none" xmlns="http://www.w3.org/2000/svg">
<g clip-path="url(#clip0_137_7328)">
<path d="M1.33337 6.83909C1.33337 4.49389 1.33337 3.32129 1.61057 2.92676C1.88704 2.53296 2.98924 2.15529 5.19437 1.40069L5.61457 1.25696C6.76371 0.863159 7.33791 0.666626 7.93337 0.666626C8.52884 0.666626 9.10304 0.863159 10.2522 1.25696L10.6724 1.40069C12.8775 2.15529 13.9797 2.53296 14.2562 2.92676C14.5334 3.32129 14.5334 4.49463 14.5334 6.83909V7.99336C14.5334 12.1279 11.4248 14.135 9.47411 14.9864C8.94537 15.2174 8.68137 15.3333 7.93337 15.3333C7.18537 15.3333 6.92137 15.2174 6.39264 14.9864C4.44197 14.1343 1.33337 12.1286 1.33337 7.99336V6.83909Z" stroke="black"/>
<path d="M7.93334 7.26659C8.74336 7.26659 9.40001 6.60994 9.40001 5.79992C9.40001 4.9899 8.74336 4.33325 7.93334 4.33325C7.12332 4.33325 6.46667 4.9899 6.46667 5.79992C6.46667 6.60994 7.12332 7.26659 7.93334 7.26659Z" stroke="black"/>
<path d="M10.8667 10.1999C10.8667 11.0103 10.8667 11.6666 7.93333 11.6666C5 11.6666 5 11.0103 5 10.1999C5 9.38961 6.31267 8.73328 7.93333 8.73328C9.554 8.73328 10.8667 9.38961 10.8667 10.1999Z" stroke="black"/>
</g>
<defs>
<clipPath id="clip0_137_7328">
<rect width="16" height="16" fill="white"/>
</clipPath>
</defs>
</svg>
