<svg width="16" height="16" viewBox="0 0 16 16" fill="none" xmlns="http://www.w3.org/2000/svg">
<path d="M10.5667 7.43337C10.5667 7.09631 10.5003 6.76255 10.3713 6.45115C10.2423 6.13974 10.0532 5.8568 9.81491 5.61846C9.57657 5.38012 9.29362 5.19106 8.98222 5.06208C8.67082 4.93309 8.33706 4.8667 8 4.8667C7.66294 4.8667 7.32918 4.93309 7.01778 5.06208C6.70638 5.19106 6.42343 5.38012 6.18509 5.61846C5.94676 5.8568 5.7577 6.13974 5.62871 6.45115C5.49972 6.76255 5.43333 7.09631 5.43333 7.43337C5.43333 8.11409 5.70375 8.76693 6.18509 9.24827C6.66644 9.72962 7.31928 10 8 10C8.68072 10 9.33356 9.72962 9.81491 9.24827C10.2963 8.76693 10.5667 8.11409 10.5667 7.43337Z" stroke="black" stroke-width="1.1" stroke-linecap="round" stroke-linejoin="round"/>
<path d="M10.5542 7.69008C10.7908 7.76293 11.0394 7.79959 11.3 7.80008M11.3 7.80008C11.7967 7.8 12.2827 7.65582 12.699 7.38502C13.1154 7.11421 13.4442 6.72842 13.6457 6.27443C13.8471 5.82044 13.9125 5.31775 13.8339 4.82733C13.7553 4.3369 13.5362 3.87982 13.2029 3.51149C12.8697 3.14317 12.4368 2.87944 11.9567 2.75229C11.4766 2.62513 10.9699 2.64001 10.498 2.79512C10.0262 2.95024 9.60949 3.23892 9.29847 3.62616C8.98744 4.0134 8.79546 4.48256 8.74579 4.97675M11.3 7.80008C13.5279 7.80008 15.3333 9.44201 15.3333 11.4667M7.25419 4.97675C7.20118 4.45052 6.98689 3.95353 6.64065 3.55373C6.29441 3.15393 5.83312 2.87085 5.31986 2.74321C4.80661 2.61558 4.26646 2.64961 3.77328 2.84067C3.28011 3.03172 2.85799 3.37046 2.56467 3.81055C2.27136 4.25065 2.12115 4.77062 2.13461 5.29933C2.14807 5.82805 2.32453 6.3397 2.63986 6.7643C2.95519 7.18891 3.39399 7.50573 3.89625 7.67144C4.39851 7.83716 4.93969 7.84367 5.44579 7.69008M12.0333 13.6667C12.0333 11.642 10.2279 10.0001 7.99999 10.0001C5.77212 10.0001 3.96666 11.642 3.96666 13.6667" stroke="black" stroke-width="1.1" stroke-linecap="round" stroke-linejoin="round"/>
<path d="M4.7 7.80005C2.47213 7.80005 0.666667 9.44198 0.666667 11.4667" stroke="black" stroke-width="1.1" stroke-linecap="round" stroke-linejoin="round"/>
</svg>
