<svg width="16" height="16" viewBox="0 0 16 16" fill="none" xmlns="http://www.w3.org/2000/svg">
<g clip-path="url(#clip0_100_5118)">
<path d="M10.1999 2.86663C10.1999 3.4501 9.96814 4.00968 9.55556 4.42226C9.14298 4.83484 8.5834 5.06663 7.99993 5.06663C7.41645 5.06663 6.85687 4.83484 6.44429 4.42226C6.03171 4.00968 5.79993 3.4501 5.79993 2.86663C5.79993 2.28315 6.03171 1.72357 6.44429 1.31099C6.85687 0.898411 7.41645 0.666626 7.99993 0.666626C8.5834 0.666626 9.14298 0.898411 9.55556 1.31099C9.96814 1.72357 10.1999 2.28315 10.1999 2.86663Z" stroke="black"/>
<path d="M7.99991 5.06665V5.79998M7.99991 5.79998C7.99991 6.48345 7.99991 6.82518 8.13044 7.09432C8.30351 7.45365 8.63644 7.73965 9.05591 7.88852C9.37124 7.99998 9.76944 7.99998 10.5666 7.99998C11.3637 7.99998 11.7619 7.99998 12.0772 8.11145C12.496 8.26032 12.8296 8.54632 13.0027 8.90565C13.1332 9.17478 13.1332 9.51652 13.1332 10.2V10.9333M7.99991 5.79998C7.99991 6.48345 7.99991 6.82518 7.86938 7.09432C7.69631 7.45365 7.36338 7.73965 6.94391 7.88852C6.62858 7.99998 6.23038 7.99998 5.43324 7.99998C4.63611 7.99998 4.23791 7.99998 3.92258 8.11145C3.50384 8.26032 3.17018 8.54632 2.99711 8.90565C2.86658 9.17478 2.86658 9.51652 2.86658 10.2V10.9333" stroke="black" stroke-linecap="round" stroke-linejoin="round"/>
<path d="M5.06663 13.1333C5.06663 13.7168 4.83484 14.2764 4.42226 14.689C4.00968 15.1016 3.4501 15.3333 2.86663 15.3333C2.28315 15.3333 1.72357 15.1016 1.31099 14.689C0.898411 14.2764 0.666626 13.7168 0.666626 13.1333C0.666626 12.5499 0.898411 11.9903 1.31099 11.5777C1.72357 11.1651 2.28315 10.9333 2.86663 10.9333C3.4501 10.9333 4.00968 11.1651 4.42226 11.5777C4.83484 11.9903 5.06663 12.5499 5.06663 13.1333ZM15.3333 13.1333C15.3333 13.7168 15.1015 14.2764 14.6889 14.689C14.2763 15.1016 13.7168 15.3333 13.1333 15.3333C12.5498 15.3333 11.9902 15.1016 11.5777 14.689C11.1651 14.2764 10.9333 13.7168 10.9333 13.1333C10.9333 12.5499 11.1651 11.9903 11.5777 11.5777C11.9902 11.1651 12.5498 10.9333 13.1333 10.9333C13.7168 10.9333 14.2763 11.1651 14.6889 11.5777C15.1015 11.9903 15.3333 12.5499 15.3333 13.1333Z" stroke="black"/>
</g>
<defs>
<clipPath id="clip0_100_5118">
<rect width="16" height="16" fill="white"/>
</clipPath>
</defs>
</svg>
