<svg width="16" height="16" viewBox="0 0 16 16" fill="none" xmlns="http://www.w3.org/2000/svg">
<path d="M10.0333 2.79998C10.0333 3.38345 9.80152 3.94303 9.38894 4.35561C8.97636 4.76819 8.41678 4.99998 7.8333 4.99998C7.24982 4.99998 6.69025 4.76819 6.27767 4.35561C5.86509 3.94303 5.6333 3.38345 5.6333 2.79998C5.6333 2.2165 5.86509 1.65692 6.27767 1.24434C6.69025 0.831761 7.24982 0.599976 7.8333 0.599976C8.41678 0.599976 8.97636 0.831761 9.38894 1.24434C9.80152 1.65692 10.0333 2.2165 10.0333 2.79998Z" fill="#B27F26" stroke="#B27F26" stroke-width="1.2"/>
<path d="M7.83328 5V5.73333M7.83328 5.73333C7.83328 6.4168 7.83328 6.75853 7.96382 7.02767C8.13688 7.387 8.46982 7.673 8.88928 7.82187C9.20462 7.93333 9.60282 7.93333 10.4 7.93333C11.1971 7.93333 11.5953 7.93333 11.9106 8.0448C12.3294 8.19367 12.663 8.47967 12.8361 8.839C12.9666 9.10813 12.9666 9.44987 12.9666 10.1333V10.8667M7.83328 5.73333C7.83328 6.4168 7.83328 6.75853 7.70275 7.02767C7.52968 7.387 7.19675 7.673 6.77728 7.82187C6.46195 7.93333 6.06375 7.93333 5.26662 7.93333C4.46948 7.93333 4.07128 7.93333 3.75595 8.0448C3.33722 8.19367 3.00355 8.47967 2.83048 8.839C2.69995 9.10813 2.69995 9.44987 2.69995 10.1333V10.8667" stroke="#B27F26" stroke-linecap="round" stroke-linejoin="round"/>
<path d="M4.9 13.0667C4.9 13.6502 4.66821 14.2098 4.25563 14.6223C3.84305 15.0349 3.28348 15.2667 2.7 15.2667C2.11652 15.2667 1.55695 15.0349 1.14437 14.6223C0.731785 14.2098 0.5 13.6502 0.5 13.0667C0.5 12.4832 0.731785 11.9236 1.14437 11.5111C1.55695 11.0985 2.11652 10.8667 2.7 10.8667C3.28348 10.8667 3.84305 11.0985 4.25563 11.5111C4.66821 11.9236 4.9 12.4832 4.9 13.0667ZM15.1667 13.0667C15.1667 13.6502 14.9349 14.2098 14.5223 14.6223C14.1097 15.0349 13.5501 15.2667 12.9667 15.2667C12.3832 15.2667 11.8236 15.0349 11.411 14.6223C10.9985 14.2098 10.7667 13.6502 10.7667 13.0667C10.7667 12.4832 10.9985 11.9236 11.411 11.5111C11.8236 11.0985 12.3832 10.8667 12.9667 10.8667C13.5501 10.8667 14.1097 11.0985 14.5223 11.5111C14.9349 11.9236 15.1667 12.4832 15.1667 13.0667Z" fill="#B27F26" stroke="#B27F26"/>
</svg>
