<svg width="40" height="40" viewBox="0 0 40 40" fill="none" xmlns="http://www.w3.org/2000/svg">
<path fill-rule="evenodd" clip-rule="evenodd" d="M20.0001 3.33337C22.1888 3.33336 24.3561 3.76445 26.3782 4.60202C28.4003 5.4396 30.2376 6.66725 31.7853 8.21489C33.3329 9.76253 34.5606 11.5999 35.3982 13.622C36.2358 15.644 36.6669 17.8113 36.6669 20C36.6669 29.2048 29.2049 36.6667 20.0001 36.6667C10.7954 36.6667 3.3335 29.2048 3.3335 20C3.3335 10.7953 10.7954 3.33337 20.0001 3.33337ZM21.6669 21.6667H18.3335C14.2073 21.6667 10.6649 24.1657 9.13701 27.733C11.5545 31.1229 15.5192 33.3334 20.0001 33.3334C24.4811 33.3334 28.4458 31.1229 30.8633 27.7327C29.3355 24.1657 25.793 21.6667 21.6669 21.6667ZM20.0001 8.33337C17.2387 8.33337 15.0001 10.572 15.0001 13.3334C15.0001 16.0948 17.2387 18.3334 20.0001 18.3334C22.7615 18.3334 25.0001 16.0948 25.0001 13.3334C25.0001 10.572 22.7616 8.33337 20.0001 8.33337Z" fill="#999999"/>
</svg>
