<svg width="16" height="16" viewBox="0 0 16 16" fill="none" xmlns="http://www.w3.org/2000/svg">
<g clip-path="url(#clip0_79_3086)">
<path d="M13.8017 9.18927H10.7296C10.3224 9.18885 9.93159 9.34994 9.64298 9.63722C9.35436 9.9245 9.19145 10.3145 9.18998 10.7217V13.7938C9.18977 13.9961 9.22945 14.1964 9.30675 14.3832C9.38405 14.5701 9.49745 14.7399 9.64046 14.8829C9.78346 15.0259 9.95327 15.1393 10.1402 15.2166C10.327 15.2939 10.5273 15.3336 10.7296 15.3334H13.8017C14.2087 15.3317 14.5986 15.1687 14.8857 14.8801C15.1728 14.5915 15.3338 14.2009 15.3333 13.7938V10.7217C15.3335 10.5205 15.2941 10.3213 15.2172 10.1353C15.1403 9.94942 15.0275 9.78049 14.8852 9.63822C14.7429 9.49595 14.574 9.38313 14.3881 9.30623C14.2021 9.22933 14.0029 9.18986 13.8017 9.19006M5.27041 9.18927H2.19834C1.79132 9.19158 1.40175 9.35488 1.11475 9.64351C0.827755 9.93214 0.666661 10.3226 0.666667 10.7297V13.8017C0.666459 14.0029 0.705934 14.2022 0.782834 14.3881C0.859734 14.5741 0.972549 14.743 1.11482 14.8853C1.25709 15.0275 1.42602 15.1403 1.61195 15.2172C1.79787 15.2941 1.99714 15.3336 2.19834 15.3334H5.27041C5.6775 15.3338 6.06815 15.1729 6.35675 14.8857C6.64534 14.5986 6.80834 14.2088 6.81002 13.8017V10.7297C6.81023 10.5274 6.77055 10.3271 6.69325 10.1402C6.61595 9.95335 6.50255 9.78354 6.35954 9.64054C6.21654 9.49753 6.04673 9.38413 5.85984 9.30683C5.67295 9.22954 5.47266 9.18986 5.27041 9.19006M5.27041 0.666749H2.19834C1.99714 0.66654 1.79787 0.706016 1.61195 0.782916C1.42602 0.859816 1.25709 0.97263 1.11482 1.1149C0.972549 1.25717 0.859734 1.42611 0.782834 1.61203C0.705934 1.79796 0.666459 1.99722 0.666667 2.19842V5.2705C0.666244 5.67758 0.827229 6.06823 1.11434 6.35683C1.40145 6.64542 1.79126 6.80842 2.19834 6.8101H5.27041C5.47266 6.81031 5.67295 6.77063 5.85984 6.69333C6.04673 6.61603 6.21654 6.50263 6.35954 6.35963C6.50255 6.21662 6.61595 6.04681 6.69325 5.85992C6.77055 5.67304 6.81023 5.47274 6.81002 5.2705V2.19842C6.80834 1.79134 6.64534 1.40153 6.35675 1.11442C6.06815 0.82731 5.6775 0.666326 5.27041 0.666749ZM13.8017 0.666749H10.7296C10.3225 0.666326 9.93185 0.82731 9.64325 1.11442C9.35466 1.40153 9.19166 1.79134 9.18998 2.19842V5.2705C9.19019 5.67876 9.35247 6.07024 9.64115 6.35893C9.92984 6.64761 10.3213 6.80989 10.7296 6.8101H13.8017C14.2087 6.80842 14.5986 6.64542 14.8857 6.35683C15.1728 6.06823 15.3338 5.67758 15.3333 5.2705V2.19842C15.3335 1.99722 15.2941 1.79796 15.2172 1.61203C15.1403 1.42611 15.0275 1.25717 14.8852 1.1149C14.7429 0.97263 14.574 0.859816 14.3881 0.782916C14.2021 0.706016 14.0029 0.66654 13.8017 0.666749Z" stroke="black" stroke-linecap="round" stroke-linejoin="round"/>
</g>
<defs>
<clipPath id="clip0_79_3086">
<rect width="16" height="16" fill="white"/>
</clipPath>
</defs>
</svg>
