<svg width="16" height="16" viewBox="0 0 16 16" fill="none" xmlns="http://www.w3.org/2000/svg">
<g clip-path="url(#clip0_79_481)">
<path d="M11.6667 0.666748V13.5734C11.6667 13.8045 11.6211 14.0334 11.5327 14.2469C11.4442 14.4605 11.3146 14.6545 11.1512 14.8179C10.9877 14.9814 10.7937 15.111 10.5802 15.1994C10.3667 15.2879 10.1378 15.3334 9.90667 15.3334H3.16C2.92887 15.3334 2.70001 15.2879 2.48648 15.1994C2.27294 15.111 2.07892 14.9814 1.91549 14.8179C1.58543 14.4879 1.4 14.0402 1.4 13.5734V0.666748M14.6 3.60008V13.5734C14.6 14.0402 14.4146 14.4879 14.0845 14.8179C13.7544 15.148 13.3068 15.3334 12.84 15.3334H9.76M8 15.3334V12.9867C8 12.8312 7.93819 12.6819 7.82817 12.5719C7.71815 12.4619 7.56893 12.4001 7.41333 12.4001H5.65333C5.49774 12.4001 5.34852 12.4619 5.2385 12.5719C5.12848 12.6819 5.06667 12.8312 5.06667 12.9867V15.3334M0.666667 0.666748H12.4M11.6667 3.60008H15.3333M8 3.60008V5.06675M5.06667 3.60008V5.06675M8 8.00008V9.46675M5.06667 8.00008V9.46675" stroke="black" stroke-miterlimit="10" stroke-linecap="round" stroke-linejoin="round"/>
</g>
<defs>
<clipPath id="clip0_79_481">
<rect width="16" height="16" fill="white"/>
</clipPath>
</defs>
</svg>
