<svg width="16" height="16" viewBox="0 0 16 16" fill="none" xmlns="http://www.w3.org/2000/svg">
<g clip-path="url(#clip0_100_5135)">
<path d="M0.667236 3.16638L5.73657 6.03874C7.60576 7.09763 8.3948 7.09763 10.264 6.03874L15.3333 3.16638" stroke="black" stroke-linejoin="round"/>
<path d="M8.00025 12.3326C7.29188 12.3326 6.58497 12.3509 5.87293 12.3326C3.56376 12.2747 0.678204 12.3326 0.678204 12.3326C0.678204 12.3326 0.726602 10.8961 0.678204 8.64852C0.662767 7.92703 0.662767 7.2053 0.678204 6.48381C0.726602 4.23623 0.678204 1.36021 0.678204 1.36021C0.678204 1.36021 3.56376 1.41814 5.87293 1.36021C7.29092 1.32443 8.70958 1.32443 10.1276 1.36021C12.4367 1.41814 15.3223 1.36021 15.3223 1.36021C15.3223 1.36021 15.2739 4.23623 15.3223 6.48381C15.3296 6.84533 15.3333 6.83946 15.3333 7.19951" stroke="black" stroke-linecap="round" stroke-linejoin="round"/>
<path d="M11.3229 11.1301V10.0976C11.3237 9.90875 11.3616 9.72195 11.4346 9.54782C11.5076 9.37368 11.6142 9.21564 11.7483 9.08271C11.8823 8.94978 12.0413 8.84457 12.2161 8.7731C12.3908 8.70163 12.578 8.66528 12.7668 8.66615C13.1253 8.66615 13.4531 8.79595 13.7054 9.01007M12.2857 15.2659H13.2478C13.9972 15.2659 14.3712 15.2659 14.655 15.1156C14.8787 14.9968 15.062 14.8149 15.1815 14.5935C15.3333 14.3119 15.3333 13.9408 15.3333 13.198C15.3333 12.4551 15.3333 12.0834 15.1815 11.8025C15.0616 11.5802 14.8783 11.3985 14.655 11.2804C14.3712 11.1301 13.9972 11.1301 13.2478 11.1301H12.2857C11.5363 11.1301 11.1623 11.1301 10.8785 11.2804C10.6548 11.3992 10.4715 11.581 10.352 11.8025C10.2002 12.0841 10.2002 12.4551 10.2002 13.198C10.2002 13.9408 10.2002 14.3126 10.352 14.5935C10.4715 14.8149 10.6548 14.9968 10.8785 15.1156C11.1623 15.2659 11.5363 15.2659 12.2857 15.2659Z" stroke="black" stroke-linecap="round"/>
</g>
<defs>
<clipPath id="clip0_100_5135">
<rect width="16" height="16" fill="white"/>
</clipPath>
</defs>
</svg>
