<svg width="16" height="16" viewBox="0 0 16 16" fill="none" xmlns="http://www.w3.org/2000/svg">
<g clip-path="url(#clip0_121_2303)">
<path d="M3.60022 1.26627H7.39221C7.81632 1.26638 8.22316 1.43515 8.52307 1.73502L14.1764 7.38931C14.5327 7.74571 14.733 8.22909 14.733 8.73306C14.7329 9.23691 14.5326 9.7205 14.1764 10.0768L10.0768 14.1764C9.72047 14.5327 9.23688 14.733 8.73303 14.7331C8.22906 14.7331 7.74568 14.5328 7.38928 14.1764L1.73499 8.5231C1.43512 8.22319 1.26635 7.81635 1.26624 7.39224V3.60025C1.26624 2.98147 1.51229 2.3874 1.94983 1.94986C2.38737 1.51232 2.98144 1.26627 3.60022 1.26627ZM4.69983 2.63345C4.17847 2.63329 3.67587 2.82973 3.29358 3.18423C2.91141 3.53871 2.67742 4.0248 2.63831 4.54459L2.63733 4.55728V4.56998L2.63342 4.67935V4.69986C2.63346 5.10834 2.75424 5.50763 2.98108 5.84732C3.20815 6.18716 3.5312 6.45263 3.90881 6.60904C4.28642 6.76544 4.70229 6.80596 5.10315 6.72623C5.50388 6.64644 5.87185 6.44972 6.16077 6.1608C6.44969 5.87188 6.64641 5.50391 6.7262 5.10318C6.80593 4.70232 6.76541 4.28645 6.60901 3.90884C6.4526 3.53123 6.18713 3.20819 5.84729 2.98111C5.54996 2.78256 5.20701 2.66459 4.85217 2.63834L4.69983 2.63345Z" fill="#B27F26" stroke="#B27F26" stroke-width="1.2"/>
</g>
<defs>
<clipPath id="clip0_121_2303">
<rect width="16" height="16" fill="white"/>
</clipPath>
</defs>
</svg>
