<svg width="16" height="16" viewBox="0 0 16 16" fill="none" xmlns="http://www.w3.org/2000/svg">
<path d="M5.72422 11.1301C5.72422 12.2749 4.81815 13.2038 3.70104 13.2038C2.58393 13.2038 1.67785 12.2749 1.67785 11.1293M5.72422 11.1301C5.72422 9.98528 4.81815 9.05557 3.70104 9.05557C2.58393 9.05557 1.67785 9.98446 1.67785 11.1293M5.72422 11.1301L10.2758 11.1293M1.67785 11.1293H0.666667V2.6112C0.666667 2.3951 0.752513 2.18785 0.90532 2.03504C1.05813 1.88223 1.26538 1.79639 1.48148 1.79639H9.46096C9.67707 1.79639 9.88432 1.88223 10.0371 2.03504C10.1899 2.18785 10.2758 2.3951 10.2758 2.6112V4.38913M10.2758 11.1293H10.7818M10.2758 11.1293V4.38913M10.2758 4.38913H12.1181C12.3354 4.38915 12.5505 4.43263 12.7507 4.51701C12.9509 4.60139 13.1323 4.72496 13.2841 4.88046L15.3333 6.98187V11.1293H14.8273M14.8273 11.1293C14.8273 12.2749 13.9221 13.2038 12.805 13.2038C11.6879 13.2038 10.7818 12.2749 10.7818 11.1293M14.8273 11.1293C14.8273 9.98446 13.9221 9.05557 12.805 9.05557C11.6879 9.05557 10.7818 9.98446 10.7818 11.1293" stroke="black" stroke-linecap="round" stroke-linejoin="round"/>
</svg>
