<svg width="16" height="13" viewBox="0 0 16 13" fill="none" xmlns="http://www.w3.org/2000/svg">
<path d="M15.6217 5.83287L14.7928 4.66138C14.6072 4.39613 14.3622 4.17972 14.0781 4.03013C13.7939 3.88053 13.4789 3.80205 13.159 3.8012H9.6338V2.04806C9.6338 1.50488 9.42182 0.983948 9.04448 0.599862C8.66714 0.215777 8.15536 0 7.62173 0H2.01207C1.47889 0.00151325 0.96798 0.217776 0.590965 0.601534C0.21395 0.985292 0.00148666 1.50534 0 2.04806V10.1911C0 10.517 0.127191 10.8296 0.353593 11.0601C0.579996 11.2905 0.887063 11.42 1.20724 11.42H2.18913C2.24991 11.8583 2.46415 12.2595 2.79244 12.5498C3.12073 12.8401 3.54098 13 3.97586 13C4.41073 13 4.83098 12.8401 5.15927 12.5498C5.48756 12.2595 5.7018 11.8583 5.76258 11.42H10.2374C10.2982 11.8583 10.5124 12.2595 10.8407 12.5498C11.169 12.8401 11.5893 13 12.0241 13C12.459 13 12.8793 12.8401 13.2076 12.5498C13.5358 12.2595 13.7501 11.8583 13.8109 11.42H14.7928C15.1129 11.42 15.42 11.2905 15.6464 11.0601C15.8728 10.8296 16 10.517 16 10.1911V7.02074C15.9985 6.59436 15.8662 6.17909 15.6217 5.83287ZM3.97586 12.1819C3.77688 12.1819 3.58237 12.1218 3.41693 12.0093C3.25149 11.8967 3.12254 11.7368 3.0464 11.5497C2.97025 11.3626 2.95033 11.1567 2.98915 10.958C3.02797 10.7594 3.12378 10.5769 3.26448 10.4337C3.40518 10.2905 3.58444 10.193 3.77959 10.1535C3.97474 10.114 4.17702 10.1342 4.36085 10.2117C4.54468 10.2892 4.7018 10.4205 4.81234 10.5889C4.92289 10.7573 4.98189 10.9553 4.98189 11.1578C4.98189 11.4294 4.8759 11.6899 4.68723 11.8819C4.49856 12.074 4.24267 12.1819 3.97586 12.1819ZM8.82897 10.6007H5.70624C5.58905 10.2273 5.35828 9.9014 5.04724 9.67017C4.73621 9.43893 4.36102 9.31432 3.97586 9.31432C3.59069 9.31432 3.2155 9.43893 2.90447 9.67017C2.59343 9.9014 2.36266 10.2273 2.24547 10.6007H1.20724C1.10052 10.6007 0.998161 10.5576 0.922693 10.4808C0.847226 10.404 0.804829 10.2998 0.804829 10.1911V2.04806C0.804829 1.72215 0.93202 1.40959 1.15842 1.17914C1.38482 0.948689 1.69189 0.819223 2.01207 0.819223H7.62173C7.94191 0.819223 8.24898 0.948689 8.47538 1.17914C8.70178 1.40959 8.82897 1.72215 8.82897 2.04806V10.6007ZM12.0241 12.1819C11.8252 12.1819 11.6307 12.1218 11.4652 12.0093C11.2998 11.8967 11.1708 11.7368 11.0947 11.5497C11.0185 11.3626 10.9986 11.1567 11.0374 10.958C11.0763 10.7594 11.1721 10.5769 11.3128 10.4337C11.4535 10.2905 11.6327 10.193 11.8279 10.1535C12.023 10.114 12.2253 10.1342 12.4091 10.2117C12.593 10.2892 12.7501 10.4205 12.8606 10.5889C12.9712 10.7573 13.0302 10.9553 13.0302 11.1578C13.0302 11.4294 12.9242 11.6899 12.7355 11.8819C12.5469 12.074 12.291 12.1819 12.0241 12.1819ZM15.1952 10.1911C15.1952 10.2998 15.1528 10.404 15.0773 10.4808C15.0018 10.5576 14.8995 10.6007 14.7928 10.6007H13.7545C13.6373 10.2273 13.4066 9.9014 13.0955 9.67017C12.7845 9.43893 12.4093 9.31432 12.0241 9.31432C11.639 9.31432 11.2638 9.43893 10.9528 9.67017C10.6417 9.9014 10.4109 10.2273 10.2938 10.6007H9.6338V4.62042H13.159C13.3509 4.62199 13.5398 4.66953 13.7104 4.75919C13.881 4.84885 14.0284 4.97812 14.1408 5.13653L14.9698 6.30802C15.1145 6.51668 15.1931 6.76535 15.1952 7.02074V10.1911Z" fill="black"/>
</svg>
