<svg width="16" height="16" viewBox="0 0 16 16" fill="none" xmlns="http://www.w3.org/2000/svg">
<path d="M2.08337 15.3333V14.4166C2.08337 12.7148 2.75941 11.0827 3.96277 9.87936C5.16613 8.676 6.79824 7.99996 8.50004 7.99996M8.50004 7.99996C10.2018 7.99996 11.834 8.676 13.0373 9.87936C14.2407 11.0827 14.9167 12.7148 14.9167 14.4166V15.3333M8.50004 7.99996C9.4725 7.99996 10.4051 7.61365 11.0928 6.92602C11.7804 6.23838 12.1667 5.30575 12.1667 4.33329C12.1667 3.36083 11.7804 2.4282 11.0928 1.74057C10.4051 1.05293 9.4725 0.666626 8.50004 0.666626C7.52758 0.666626 6.59495 1.05293 5.90732 1.74057C5.21968 2.4282 4.83337 3.36083 4.83337 4.33329C4.83337 5.30575 5.21968 6.23838 5.90732 6.92602C6.59495 7.61365 7.52758 7.99996 8.50004 7.99996Z" stroke="black" stroke-linecap="round" stroke-linejoin="round"/>
</svg>
