<svg width="16" height="16" viewBox="0 0 16 16" fill="none" xmlns="http://www.w3.org/2000/svg">
<path d="M4.66667 9.33317H11.3333M4.66667 7.33317H11.3333M4.66667 11.3332H8.66667M10.6667 1.99984V3.4665C10.6667 3.60795 10.6105 3.74361 10.5105 3.84363C10.4104 3.94365 10.2748 3.99984 10.1333 3.99984H5.86667C5.72522 3.99984 5.58956 3.94365 5.48954 3.84363C5.38952 3.74361 5.33333 3.60795 5.33333 3.4665V1.99984M6.66667 1.99984C6.66667 1.64622 6.80714 1.30708 7.05719 1.05703C7.30724 0.80698 7.64638 0.666504 8 0.666504C8.35362 0.666504 8.69276 0.80698 8.94281 1.05703C9.19286 1.30708 9.33333 1.64622 9.33333 1.99984M3.6 1.99984H12.4C12.8243 1.99984 13.2313 2.16841 13.5314 2.46847C13.8314 2.76852 14 3.17549 14 3.59984V13.7332C14 14.1575 13.8314 14.5645 13.5314 14.8645C13.2313 15.1646 12.8243 15.3332 12.4 15.3332H3.6C3.38989 15.3332 3.18183 15.2918 2.98771 15.2114C2.79359 15.131 2.6172 15.0131 2.46863 14.8645C2.16857 14.5645 2 14.1575 2 13.7332V3.59984C2 3.38972 2.04139 3.18166 2.12179 2.98754C2.2022 2.79342 2.32006 2.61704 2.46863 2.46847C2.76869 2.16841 3.17565 1.99984 3.6 1.99984Z" stroke="black" stroke-miterlimit="10" stroke-linecap="round" stroke-linejoin="round"/>
</svg>
