<svg width="16" height="16" viewBox="0 0 16 16" fill="none" xmlns="http://www.w3.org/2000/svg">
<path d="M6.53329 2H1.39996C1.20547 2 1.01894 2.08429 0.881414 2.23431C0.743888 2.38434 0.666626 2.58783 0.666626 2.8V13.2C0.666626 13.4122 0.743888 13.6157 0.881414 13.7657C1.01894 13.9157 1.20547 14 1.39996 14H14.6C14.7945 14 14.981 13.9157 15.1185 13.7657C15.256 13.6157 15.3333 13.4122 15.3333 13.2V12.2" stroke="black" stroke-linecap="round" stroke-linejoin="round"/>
<path d="M2.86658 7.43335H5.79991M2.86658 10.3667H11.6666" stroke="black" stroke-linecap="round"/>
<path d="M11.6667 7.06663C12.8817 7.06663 13.8667 6.08165 13.8667 4.86663C13.8667 3.6516 12.8817 2.66663 11.6667 2.66663C10.4516 2.66663 9.46667 3.6516 9.46667 4.86663C9.46667 6.08165 10.4516 7.06663 11.6667 7.06663Z" stroke="black" stroke-linecap="round" stroke-linejoin="round"/>
<path d="M15.3333 9.42028C14.6172 8.02072 13.1333 7.06665 11.6666 7.06665C10.2 7.06665 9.4692 7.48208 8.71497 8.16665" stroke="black" stroke-linecap="round" stroke-linejoin="round"/>
</svg>
