<svg width="16" height="16" viewBox="0 0 16 16" fill="none" xmlns="http://www.w3.org/2000/svg">
<g clip-path="url(#clip0_100_5125)">
<path d="M9.83329 3.41663H11.9783C12.1578 3.41647 12.3334 3.46902 12.4834 3.56778C12.6333 3.66653 12.7509 3.80713 12.8216 3.97213L15.3333 9.83329V13.5C15.3333 13.9862 15.1401 14.4525 14.7963 14.7963C14.4525 15.1401 13.9862 15.3333 13.5 15.3333H2.49996C2.01373 15.3333 1.54741 15.1401 1.2036 14.7963C0.85978 14.4525 0.666626 13.9862 0.666626 13.5V9.83329L3.17829 3.97213C3.24902 3.80713 3.36665 3.66653 3.51657 3.56778C3.66649 3.46902 3.8421 3.41647 4.02163 3.41663H6.16663" stroke="black" stroke-linecap="round" stroke-linejoin="round"/>
<path d="M10.75 6.24546L7.99996 8.91663M7.99996 8.91663L5.24996 6.24546M7.99996 8.91663V0.666626M0.666626 9.83329H4.33329C4.57641 9.83329 4.80957 9.92987 4.98147 10.1018C5.15338 10.2737 5.24996 10.5068 5.24996 10.75V11.6666C5.24996 11.9097 5.34654 12.1429 5.51845 12.3148C5.69035 12.4867 5.92351 12.5833 6.16663 12.5833H9.83329C10.0764 12.5833 10.3096 12.4867 10.4815 12.3148C10.6534 12.1429 10.75 11.9097 10.75 11.6666V10.75C10.75 10.5068 10.8465 10.2737 11.0184 10.1018C11.1904 9.92987 11.4235 9.83329 11.6666 9.83329H15.3333" stroke="black" stroke-linecap="round" stroke-linejoin="round"/>
</g>
<defs>
<clipPath id="clip0_100_5125">
<rect width="16" height="16" fill="white"/>
</clipPath>
</defs>
</svg>
