<svg width="16" height="16" viewBox="0 0 16 16" fill="none" xmlns="http://www.w3.org/2000/svg">
<path fill-rule="evenodd" clip-rule="evenodd" d="M0.803537 0.0315146C0.649867 -0.0200587 0.482171 -0.00797109 0.337341 0.0651185C0.19251 0.138208 0.0824082 0.266312 0.0312568 0.42125C-0.0198946 0.576188 -0.00790582 0.745267 0.0645858 0.891292C0.137078 1.03732 0.264134 1.14833 0.417804 1.1999L0.633457 1.2721C1.18357 1.45672 1.54815 1.58061 1.81588 1.70615C2.06978 1.82512 2.17965 1.92112 2.24963 2.01958C2.31962 2.11803 2.37577 2.2526 2.4075 2.53321C2.44087 2.8294 2.44168 3.21668 2.44168 3.80169V5.99406C2.44168 7.11567 2.44168 8.02068 2.5369 8.73205C2.63455 9.4705 2.84613 10.0924 3.33603 10.5864C3.82512 11.0803 4.44278 11.292 5.17518 11.3921C5.87992 11.4873 6.77752 11.4873 7.88996 11.4873H14.445C14.6069 11.4873 14.7621 11.4224 14.8766 11.307C14.991 11.1916 15.0553 11.0351 15.0553 10.8719C15.0553 10.7087 14.991 10.5522 14.8766 10.4368C14.7621 10.3214 14.6069 10.2565 14.445 10.2565H7.93472C6.76694 10.2565 5.95235 10.2549 5.33713 10.172C4.74062 10.0908 4.42406 9.94228 4.19864 9.71582C4.11663 9.63298 4.04675 9.53877 3.99113 9.43603H12.0517C12.4162 9.43603 12.7369 9.43603 13.0038 9.40732C13.2919 9.37532 13.5718 9.30558 13.8338 9.13081C14.0975 8.95604 14.2708 8.72466 14.4133 8.46949C14.5443 8.23483 14.6712 7.93699 14.8145 7.59894L15.1945 6.7046C15.5078 5.96944 15.769 5.35325 15.9 4.85275C16.0368 4.33009 16.0726 3.78446 15.7503 3.29134C15.428 2.79905 14.9162 2.6169 14.3864 2.53731C13.8778 2.46182 13.2137 2.46182 12.4195 2.46182H3.62737L3.62004 2.39372C3.57528 1.99578 3.47682 1.63066 3.24001 1.3C3.00319 0.968521 2.6907 0.758474 2.33101 0.590272C1.99166 0.431096 1.56117 0.286689 1.05174 0.114385L0.803537 0.0315146ZM3.66236 3.69257V5.94893C3.66236 6.91055 3.66317 7.63423 3.70874 8.20529H12.0215C12.4252 8.20529 12.6799 8.20447 12.8728 8.18314C13.051 8.16427 13.1193 8.13227 13.1625 8.10355C13.2056 8.07483 13.2618 8.02396 13.3496 7.86643C13.4449 7.69576 13.5449 7.46028 13.7044 7.08696L14.0536 6.26646C14.3905 5.47222 14.6151 4.94054 14.7201 4.5385C14.8226 4.14794 14.7705 4.02979 14.7314 3.96907C14.6916 3.90918 14.6037 3.814 14.2074 3.75574C13.7997 3.69421 13.2268 3.69257 12.3707 3.69257H3.66236ZM3.25547 14.1539C3.25547 14.6435 3.44838 15.1131 3.79176 15.4593C4.13514 15.8055 4.60087 16 5.08648 16C5.5721 16 6.03782 15.8055 6.3812 15.4593C6.72458 15.1131 6.91749 14.6435 6.91749 14.1539C6.91749 13.6643 6.72458 13.1947 6.3812 12.8485C6.03782 12.5023 5.5721 12.3078 5.08648 12.3078C4.60087 12.3078 4.13514 12.5023 3.79176 12.8485C3.44838 13.1947 3.25547 13.6643 3.25547 14.1539ZM5.08648 14.7693C4.92461 14.7693 4.76937 14.7044 4.65491 14.589C4.54045 14.4736 4.47614 14.3171 4.47614 14.1539C4.47614 13.9907 4.54045 13.8342 4.65491 13.7188C4.76937 13.6033 4.92461 13.5385 5.08648 13.5385C5.24835 13.5385 5.40359 13.6033 5.51805 13.7188C5.63251 13.8342 5.69682 13.9907 5.69682 14.1539C5.69682 14.3171 5.63251 14.4736 5.51805 14.589C5.40359 14.7044 5.24835 14.7693 5.08648 14.7693ZM12.4105 16C11.9249 16 11.4592 15.8055 11.1158 15.4593C10.7724 15.1131 10.5795 14.6435 10.5795 14.1539C10.5795 13.6643 10.7724 13.1947 11.1158 12.8485C11.4592 12.5023 11.9249 12.3078 12.4105 12.3078C12.8961 12.3078 13.3619 12.5023 13.7053 12.8485C14.0486 13.1947 14.2415 13.6643 14.2415 14.1539C14.2415 14.6435 14.0486 15.1131 13.7053 15.4593C13.3619 15.8055 12.8961 16 12.4105 16ZM11.8002 14.1539C11.8002 14.3171 11.8645 14.4736 11.979 14.589C12.0934 14.7044 12.2487 14.7693 12.4105 14.7693C12.5724 14.7693 12.7276 14.7044 12.8421 14.589C12.9566 14.4736 13.0209 14.3171 13.0209 14.1539C13.0209 13.9907 12.9566 13.8342 12.8421 13.7188C12.7276 13.6033 12.5724 13.5385 12.4105 13.5385C12.2487 13.5385 12.0934 13.6033 11.979 13.7188C11.8645 13.8342 11.8002 13.9907 11.8002 14.1539Z" fill="black"/>
</svg>
