<svg width="16" height="16" viewBox="0 0 16 16" fill="none" xmlns="http://www.w3.org/2000/svg">
<path d="M12.6667 2.33331H3.33337C2.78109 2.33331 2.33337 2.78103 2.33337 3.33331V14C2.33337 14.5523 2.78109 15 3.33337 15H12.6667C13.219 15 13.6667 14.5523 13.6667 14V3.33331C13.6667 2.78103 13.219 2.33331 12.6667 2.33331Z" fill="#B27F26"/>
<path d="M10.6667 2.00002V3.46669C10.6667 3.60814 10.6105 3.74379 10.5105 3.84381C10.4104 3.94383 10.2748 4.00002 10.1333 4.00002H5.86667C5.72522 4.00002 5.58956 3.94383 5.48954 3.84381C5.38952 3.74379 5.33333 3.60814 5.33333 3.46669V2.00002M6.66667 2.00002C6.66667 1.6464 6.80714 1.30726 7.05719 1.05721C7.30724 0.807163 7.64638 0.666687 8 0.666687C8.35362 0.666687 8.69276 0.807163 8.94281 1.05721C9.19286 1.30726 9.33333 1.6464 9.33333 2.00002M3.6 2.00002H12.4C12.8243 2.00002 13.2313 2.16859 13.5314 2.46865C13.8314 2.76871 14 3.17567 14 3.60002V13.7334C14 14.1577 13.8314 14.5647 13.5314 14.8647C13.2313 15.1648 12.8243 15.3334 12.4 15.3334H3.6C3.38989 15.3334 3.18183 15.292 2.98771 15.2116C2.79359 15.1312 2.6172 15.0133 2.46863 14.8647C2.16857 14.5647 2 14.1577 2 13.7334V3.60002C2 3.38991 2.04139 3.18185 2.12179 2.98773C2.2022 2.79361 2.32006 2.61722 2.46863 2.46865C2.76869 2.16859 3.17565 2.00002 3.6 2.00002Z" stroke="#B27F26" stroke-width="1.2" stroke-miterlimit="10" stroke-linecap="round" stroke-linejoin="round"/>
<path d="M5.33337 9.11109L7.45102 11.3333L11.3334 7.33331" stroke="#F3E8D4" stroke-linecap="round" stroke-linejoin="round"/>
</svg>
