<svg width="24" height="24" viewBox="0 0 24 24" fill="none" xmlns="http://www.w3.org/2000/svg">
<path d="M14.706 4.31301H9.29401C8.63978 4.31275 7.9919 4.4414 7.3874 4.69161C6.78291 4.94183 6.23363 5.3087 5.77097 5.77127C5.30831 6.23383 4.94133 6.78303 4.691 7.38748C4.44066 7.99193 4.31188 8.63978 4.31201 9.29401V14.706C4.31175 15.3603 4.44043 16.0083 4.69071 16.6129C4.94098 17.2174 5.30795 17.7667 5.77062 18.2294C6.23329 18.6921 6.78261 19.059 7.38717 19.3093C7.99174 19.5596 8.63969 19.6883 9.29401 19.688H14.706C15.3603 19.6883 16.0083 19.5596 16.6129 19.3093C17.2174 19.059 17.7667 18.6921 18.2294 18.2294C18.6921 17.7667 19.059 17.2174 19.3093 16.6129C19.5596 16.0083 19.6883 15.3603 19.688 14.706V9.29401C19.6883 8.63969 19.5596 7.99174 19.3093 7.38717C19.059 6.78261 18.6921 6.23329 18.2294 5.77062C17.7667 5.30795 17.2174 4.94098 16.6129 4.69071C16.0083 4.44043 15.3603 4.31175 14.706 4.31201V4.31301Z" stroke="#B27F26" stroke-width="1.5"/>
<path d="M19.606 15.5881H21.225C21.4968 15.5881 21.7576 15.4801 21.9498 15.2879C22.142 15.0956 22.25 14.8349 22.25 14.5631V9.43809C22.25 9.16624 22.142 8.90553 21.9498 8.7133C21.7576 8.52108 21.4968 8.41309 21.225 8.41309H19.605M4.395 15.5881H2.775C2.6404 15.5881 2.50711 15.5616 2.38275 15.5101C2.25839 15.4586 2.1454 15.3831 2.05022 15.2879C1.95504 15.1927 1.87953 15.0797 1.82802 14.9553C1.77651 14.831 1.75 14.6977 1.75 14.5631V9.43809C1.75 9.16624 1.85799 8.90553 2.05022 8.7133C2.24244 8.52108 2.50315 8.41309 2.775 8.41309H4.395" stroke="#B27F26" stroke-width="1.5"/>
<path d="M2.76489 8.41299V4.31299M21.2249 8.41299L21.2149 4.31299M9.93989 15.588H14.0399M7.87989 10.975L8.90289 9.94999L9.92789 10.975M14.0299 10.975L15.0549 9.94999L16.0789 10.975" stroke="#B27F26" stroke-width="1.5" stroke-linecap="round" stroke-linejoin="round"/>
</svg>
