<svg width="16" height="16" viewBox="0 0 16 16" fill="none" xmlns="http://www.w3.org/2000/svg">
<path d="M2 8V12.8889C2 12.8889 2 15.3333 7.7037 15.3333C13.4074 15.3333 13.4074 12.8889 13.4074 12.8889V8" stroke="black"/>
<path d="M2 3.11108V7.99997C2 7.99997 2 10.4444 7.7037 10.4444C13.4074 10.4444 13.4074 7.99997 13.4074 7.99997V3.11108" stroke="black"/>
<path d="M7.7037 0.666626C13.4074 0.666626 13.4074 3.11107 13.4074 3.11107C13.4074 3.11107 13.4074 5.55551 7.7037 5.55551C2 5.55551 2 3.11107 2 3.11107C2 3.11107 2 0.666626 7.7037 0.666626Z" stroke="black"/>
</svg>
