<svg width="16" height="16" viewBox="0 0 16 16" fill="none" xmlns="http://www.w3.org/2000/svg">
<path d="M13.0586 12.4858L13.0576 12.4956V12.5259C13.0456 12.6376 13.0191 12.7473 12.9785 12.8521L12.9023 13.019C12.808 13.197 12.6563 13.4049 12.4131 13.6138C11.7642 14.1696 10.4575 14.7329 7.8291 14.7329C5.20067 14.7329 3.89405 14.1696 3.24512 13.6138C3.00202 13.4055 2.85036 13.1973 2.75586 13.019L2.67969 12.8521C2.63991 12.7495 2.62004 12.664 2.61035 12.605L2.6084 12.5972L2.60742 12.5903L2.59961 12.52V12.5142H2.56445V12.5132H2.59961V10.8608C2.64655 10.8675 2.72072 10.885 2.81055 10.9272C2.92401 10.9806 3.01177 11.0465 3.05566 11.0933C3.08669 11.1266 3.11908 11.1589 3.15332 11.189L3.17676 11.2085L3.20117 11.2261C3.8685 11.7021 5.19379 12.1724 7.8291 12.1724C10.4644 12.1724 11.7903 11.7025 12.457 11.2261L12.4639 11.2202L12.4717 11.2153L12.5381 11.1646L12.543 11.1606L12.5488 11.1558C12.8048 10.951 12.9511 10.8744 13.0586 10.8608V12.4858ZM2.56445 12.6304C2.5759 12.6576 2.57226 12.6866 2.56445 12.7163V12.6304ZM13.0938 12.7163C13.0859 12.6866 13.0823 12.6577 13.0938 12.6304V12.7163Z" fill="#B27F26" stroke="#B27F26" stroke-width="1.2"/>
<path fill-rule="evenodd" clip-rule="evenodd" d="M2.5641 5.74353C2.41449 5.74353 2.27101 5.80296 2.16522 5.90875C2.05943 6.01454 2 6.15803 2 6.30763V7.99994H2.5641C2 7.99994 2 8.00145 2 8.00145V8.02777C2.00184 8.08206 2.00787 8.13612 2.01805 8.18948C2.03385 8.28575 2.06393 8.41211 2.12034 8.55728C2.23467 8.85061 2.45203 9.21163 2.85518 9.55687C3.65696 10.2436 5.12889 10.8205 7.82906 10.8205C10.5292 10.8205 12.0012 10.2436 12.8029 9.55687C13.2061 9.21088 13.4235 8.85136 13.5378 8.55652C13.5985 8.40003 13.6379 8.23611 13.6551 8.06914L13.6574 8.02777V8.01273L13.6581 8.00521V8.00145C13.6581 8.00145 13.6581 7.99994 13.094 7.99994H13.6581V6.30763C13.6581 6.15803 13.5987 6.01454 13.4929 5.90875C13.3871 5.80296 13.2436 5.74353 13.094 5.74353C12.7465 5.74278 12.4449 5.95789 12.1742 6.17451L12.108 6.2249C11.589 6.5957 10.4111 7.05977 7.82906 7.05977C5.24697 7.05977 4.06913 6.5957 3.5494 6.2249C3.5302 6.20804 3.51188 6.19022 3.4945 6.1715C3.28164 5.9436 2.87549 5.74278 2.5641 5.74353Z" fill="#B27F26"/>
<path fill-rule="evenodd" clip-rule="evenodd" d="M2.85518 1.93022C3.65696 1.24427 5.12889 0.666626 7.82906 0.666626C10.5292 0.666626 12.0012 1.24351 12.8029 1.93022C13.2061 2.2762 13.4235 2.63647 13.5378 2.93056C13.5985 3.08705 13.6379 3.25097 13.6551 3.41794C13.6626 3.50446 13.6575 3.5916 13.6401 3.67668C13.6185 3.80243 13.5843 3.92566 13.5378 4.04447C13.4235 4.33781 13.2061 4.69883 12.8029 5.04331C12.0012 5.73076 10.5292 6.30765 7.82906 6.30765C5.12889 6.30765 3.65696 5.73076 2.85518 5.04406C2.45203 4.69808 2.23467 4.33781 2.12034 4.04372C2.0739 3.92515 2.03963 3.80217 2.01805 3.67668C2.00614 3.61318 2.0001 3.54873 2 3.48413C2.001 3.42145 2.00702 3.35928 2.01805 3.2976C2.03385 3.20133 2.06393 3.07572 2.12034 2.92981C2.23467 2.63647 2.45203 2.27469 2.85518 1.93022Z" fill="#B27F26"/>
</svg>
