<svg width="16" height="16" viewBox="0 0 16 16" fill="none" xmlns="http://www.w3.org/2000/svg">
<g clip-path="url(#clip0_121_2341)">
<path d="M7.98694 0.733734C9.53559 0.73374 10.7906 1.98879 10.7906 3.53745C10.7906 5.08609 9.53559 6.34115 7.98694 6.34116C6.43828 6.34116 5.18323 5.0861 5.18323 3.53745C5.18323 1.98879 6.43828 0.733734 7.98694 0.733734Z" fill="#B27F26" stroke="#F3E8D4" stroke-width="1.2" stroke-linecap="round" stroke-linejoin="round"/>
<path d="M3.94602 5.74152C3.62808 5.74482 3.31979 5.85115 3.06743 6.04456C2.81507 6.23797 2.63225 6.50802 2.54642 6.81417L0.713348 13.4558C0.657807 13.6708 0.651699 13.8955 0.695483 14.1132C0.739267 14.3309 0.831804 14.5358 0.966144 14.7125C1.10048 14.8893 1.27313 15.0333 1.47112 15.1338C1.66911 15.2342 1.88729 15.2885 2.10927 15.2926H13.8644C14.0912 15.2925 14.3149 15.2399 14.518 15.139C14.721 15.038 14.898 14.8915 15.035 14.7107C15.172 14.53 15.2652 14.32 15.3075 14.0972C15.3498 13.8744 15.34 13.6448 15.2787 13.4264L13.4236 6.84356C13.3427 6.53015 13.1606 6.25222 12.9055 6.05294C12.6504 5.85366 12.3367 5.74419 12.013 5.74152H3.94602Z" fill="#B27F26" stroke="#F3E8D4" stroke-linecap="round" stroke-linejoin="round"/>
</g>
<defs>
<clipPath id="clip0_121_2341">
<rect width="16" height="16" fill="white"/>
</clipPath>
</defs>
</svg>
