<svg width="16" height="16" viewBox="0 0 16 16" fill="none" xmlns="http://www.w3.org/2000/svg">
<g clip-path="url(#clip0_79_1103)">
<path d="M7.98691 5.74144C9.2042 5.74144 10.191 4.75463 10.191 3.53734C10.191 2.32006 9.2042 1.33325 7.98691 1.33325C6.76963 1.33325 5.78282 2.32006 5.78282 3.53734C5.78282 4.75463 6.76963 5.74144 7.98691 5.74144Z" stroke="black" stroke-linecap="round" stroke-linejoin="round"/>
<path d="M3.94606 5.74146C3.62812 5.74475 3.31983 5.85109 3.06747 6.0445C2.81511 6.23791 2.63229 6.50796 2.54646 6.81411L0.713389 13.4558C0.657847 13.6707 0.651739 13.8955 0.695523 14.1131C0.739307 14.3308 0.831845 14.5357 0.966185 14.7125C1.10052 14.8892 1.27317 15.0333 1.47116 15.1337C1.66915 15.2342 1.88733 15.2885 2.10931 15.2925H13.8645C14.0912 15.2924 14.3149 15.2399 14.518 15.1389C14.7211 15.038 14.898 14.8914 15.035 14.7107C15.172 14.5299 15.2653 14.3199 15.3076 14.0971C15.3498 13.8743 15.34 13.6447 15.2788 13.4264L13.4236 6.8435C13.3427 6.53009 13.1606 6.25216 12.9055 6.05288C12.6504 5.8536 12.3367 5.74413 12.013 5.74146H3.94606Z" stroke="black" stroke-linecap="round" stroke-linejoin="round"/>
</g>
<defs>
<clipPath id="clip0_79_1103">
<rect width="16" height="16" fill="white"/>
</clipPath>
</defs>
</svg>
