<svg width="16" height="16" viewBox="0 0 16 16" fill="none" xmlns="http://www.w3.org/2000/svg">
<path d="M15.3333 11.6667H0.666626C1.39405 8.51767 2.66663 7.66665 7.99996 7.66667C13.3333 7.66669 14.33 8.44272 15.3333 11.6667Z" fill="#B27F26"/>
<path d="M4 14C4.33665 9.6247 11 8.33333 12 14L4 14Z" fill="#B27F26"/>
<path d="M8 5C6.71134 5 5.75239 6.04752 5.66667 7.33333C5.57462 8.71405 6.61623 10 8 10C9.38378 10 10.4254 8.71405 10.3333 7.33333C10.2476 6.04752 9.28867 5 8 5Z" fill="#B27F26"/>
<path d="M4.66663 2.66667C3.37797 2.66667 2.41902 3.71419 2.3333 5.00001C2.24125 6.38072 3.28285 7.66667 4.66663 7.66667C6.0504 7.66667 7.092 6.38072 6.99995 5.00001C6.91423 3.71419 5.95529 2.66667 4.66663 2.66667Z" fill="#B27F26"/>
<path d="M11.3334 2.66667C10.0447 2.66667 9.08577 3.71419 9.00004 5.00001C8.908 6.38072 9.9496 7.66667 11.3334 7.66667C12.7172 7.66667 13.7587 6.38072 13.6667 5.00001C13.581 3.71419 12.622 2.66667 11.3334 2.66667Z" fill="#B27F26"/>
<path d="M10.5667 7.43332C10.5667 7.09626 10.5003 6.7625 10.3713 6.4511C10.2423 6.1397 10.0533 5.85675 9.81492 5.61841C9.57659 5.38008 9.29364 5.19102 8.98224 5.06203C8.67083 4.93304 8.33708 4.86665 8.00002 4.86665C7.66296 4.86665 7.3292 4.93304 7.0178 5.06203C6.70639 5.19102 6.42345 5.38008 6.18511 5.61841C5.94677 5.85675 5.75771 6.1397 5.62873 6.4511C5.49974 6.7625 5.43335 7.09626 5.43335 7.43332C5.43335 8.11404 5.70377 8.76688 6.18511 9.24823C6.66645 9.72957 7.31929 9.99999 8.00002 9.99999C8.68074 9.99999 9.33358 9.72957 9.81492 9.24823C10.2963 8.76688 10.5667 8.11404 10.5667 7.43332Z" stroke="#F3E8D4" stroke-width="1.1" stroke-linecap="round" stroke-linejoin="round"/>
<path d="M10.5542 7.69001C10.7908 7.76285 11.0394 7.79952 11.3 7.80001M11.3 7.80001C11.7967 7.79993 12.2827 7.65574 12.699 7.38494C13.1154 7.11414 13.4442 6.72834 13.6457 6.27435C13.8471 5.82036 13.9125 5.31767 13.8339 4.82725C13.7554 4.33683 13.5362 3.87974 13.203 3.51142C12.8697 3.1431 12.4368 2.87937 11.9567 2.75221C11.4766 2.62505 10.9699 2.63993 10.498 2.79505C10.0262 2.95016 9.6095 3.23884 9.29847 3.62608C8.98745 4.01332 8.79546 4.48248 8.7458 4.97667M11.3 7.80001C13.5279 7.80001 15.3333 9.44194 15.3333 11.4667M7.2542 4.97667C7.20118 4.45045 6.9869 3.95345 6.64066 3.55365C6.29442 3.15385 5.83313 2.87078 5.31987 2.74314C4.80662 2.6155 4.26646 2.64954 3.77329 2.84059C3.28012 3.03164 2.858 3.37038 2.56468 3.81048C2.27136 4.25058 2.12116 4.77054 2.13462 5.29926C2.14808 5.82797 2.32454 6.33962 2.63987 6.76423C2.9552 7.18883 3.394 7.50566 3.89626 7.67137C4.39852 7.83708 4.9397 7.84359 5.4458 7.69001M12.0333 13.6667C12.0333 11.6419 10.2279 10 8 10C5.77213 10 3.96666 11.6419 3.96666 13.6667" stroke="#F3E8D4" stroke-width="1.1" stroke-linecap="round" stroke-linejoin="round"/>
<path d="M4.69996 7.8C2.47209 7.8 0.666626 9.44194 0.666626 11.4667" stroke="#F3E8D4" stroke-width="1.1" stroke-linecap="round" stroke-linejoin="round"/>
</svg>
